<svg xmlns="http://www.w3.org/2000/svg" viewBox="0 0 680 240" width="100%" style="max-width: 680px; display: block; background: transparent; font-family: 'Source Sans 3', 'Inter', sans-serif;"><defs><marker id="arrow" viewBox="0 0 8 8" refX="7" refY="4" markerWidth="6" markerHeight="6" orient="auto-start-reverse"><path d="M0,0 L8,4 L0,8 z" fill="#2B4C6F"></path></marker><marker id="arrow-amber" viewBox="0 0 8 8" refX="7" refY="4" markerWidth="6" markerHeight="6" orient="auto-start-reverse"><path d="M0,0 L8,4 L0,8 z" fill="#C8873D"></path></marker><marker id="arrow-red" viewBox="0 0 8 8" refX="7" refY="4" markerWidth="6" markerHeight="6" orient="auto-start-reverse"><path d="M0,0 L8,4 L0,8 z" fill="#C45B4A"></path></marker><marker id="arrow-green" viewBox="0 0 8 8" refX="7" refY="4" markerWidth="6" markerHeight="6" orient="auto-start-reverse"><path d="M0,0 L8,4 L0,8 z" fill="#5A8F6A"></path></marker><marker id="dot" viewBox="0 0 6 6" refX="3" refY="3" markerWidth="5" markerHeight="5"><circle cx="3" cy="3" r="2.5" fill="#2B4C6F"></circle></marker></defs><g><text x="20" y="14" font-family="'Source Sans 3', 'Inter', sans-serif" font-size="10" font-weight="600" letter-spacing="0.06em" fill="#8B7D6B">FIGURE 1.2</text><text x="20" y="28" font-family="'Source Sans 3', 'Inter', sans-serif" font-size="16" font-weight="600" fill="#2B4C6F">The prompt — no system</text></g><g><rect x="50" y="100" width="180" height="64" rx="7" ry="7" class="dg-node"></rect><text x="140" y="137" text-anchor="middle" dominant-baseline="middle" class="dg-text">Your prompt</text></g><g><rect x="280" y="100" width="140" height="64" rx="7" ry="7" class="dg-node dg-node--active"></rect><text x="350" y="137" text-anchor="middle" dominant-baseline="middle" class="dg-text dg-text--inverse">AI</text></g><g><rect x="470" y="100" width="170" height="64" rx="7" ry="7" class="dg-node"></rect><text x="555" y="137" text-anchor="middle" dominant-baseline="middle" class="dg-text">Output</text></g><g><path d="M 230 132 Q 255 132 280 132" class="dg-arrow" stroke="#2B4C6F" marker-end="url(#arrow)"></path></g><g><path d="M 420 132 Q 445 132 470 132" class="dg-arrow" stroke="#2B4C6F" marker-end="url(#arrow)"></path></g><text x="20" y="216" text-anchor="start" font-family="'Source Sans 3', 'Inter', sans-serif" font-size="11" font-weight="400" fill="#8B7D6B">A single prompt, a single response. No memory, no checks, no sequencing.</text></svg>