<svg xmlns="http://www.w3.org/2000/svg" viewBox="0 0 680 520" width="100%" style="max-width: 680px; display: block; background: transparent; font-family: 'Source Sans 3', 'Inter', sans-serif;"><defs><marker id="arrow" viewBox="0 0 8 8" refX="7" refY="4" markerWidth="6" markerHeight="6" orient="auto-start-reverse"><path d="M0,0 L8,4 L0,8 z" fill="#2B4C6F"></path></marker><marker id="arrow-amber" viewBox="0 0 8 8" refX="7" refY="4" markerWidth="6" markerHeight="6" orient="auto-start-reverse"><path d="M0,0 L8,4 L0,8 z" fill="#C8873D"></path></marker><marker id="arrow-red" viewBox="0 0 8 8" refX="7" refY="4" markerWidth="6" markerHeight="6" orient="auto-start-reverse"><path d="M0,0 L8,4 L0,8 z" fill="#C45B4A"></path></marker><marker id="arrow-green" viewBox="0 0 8 8" refX="7" refY="4" markerWidth="6" markerHeight="6" orient="auto-start-reverse"><path d="M0,0 L8,4 L0,8 z" fill="#5A8F6A"></path></marker><marker id="dot" viewBox="0 0 6 6" refX="3" refY="3" markerWidth="5" markerHeight="5"><circle cx="3" cy="3" r="2.5" fill="#2B4C6F"></circle></marker></defs><g><text x="20" y="14" font-family="'Source Sans 3', 'Inter', sans-serif" font-size="10" font-weight="600" letter-spacing="0.06em" fill="#8B7D6B">FIGURE 2.2</text><text x="20" y="28" font-family="'Source Sans 3', 'Inter', sans-serif" font-size="16" font-weight="600" fill="#2B4C6F">Manual overhead compounds</text></g><g><g><rect x="220" y="80" width="220" height="52" rx="7" ry="7" class="dg-node"></rect><text x="330" y="104" text-anchor="middle" dominant-baseline="middle" class="dg-text">Session 1</text><text x="330" y="120" text-anchor="middle" dominant-baseline="middle" class="dg-text--sub">5 min context</text></g><g><path d="M 330 132 Q 330 141 330 150" class="dg-arrow" stroke="#2B4C6F" marker-end="url(#arrow)"></path></g></g><g><g><rect x="220" y="150" width="220" height="52" rx="7" ry="7" class="dg-node"></rect><text x="330" y="174" text-anchor="middle" dominant-baseline="middle" class="dg-text">Session 2</text><text x="330" y="190" text-anchor="middle" dominant-baseline="middle" class="dg-text--sub">8 min context</text></g><g><path d="M 330 202 Q 330 211 330 220" class="dg-arrow" stroke="#2B4C6F" marker-end="url(#arrow)"></path></g></g><g><g><rect x="220" y="220" width="220" height="52" rx="7" ry="7" class="dg-node"></rect><text x="330" y="244" text-anchor="middle" dominant-baseline="middle" class="dg-text">Session 3</text><text x="330" y="260" text-anchor="middle" dominant-baseline="middle" class="dg-text--sub">12 min context</text></g><g><path d="M 330 272 Q 330 281 330 290" class="dg-arrow" stroke="#2B4C6F" marker-end="url(#arrow)"></path></g></g><g><g><rect x="220" y="290" width="220" height="52" rx="7" ry="7" class="dg-node"></rect><text x="330" y="314" text-anchor="middle" dominant-baseline="middle" class="dg-text">Session 4</text><text x="330" y="330" text-anchor="middle" dominant-baseline="middle" class="dg-text--sub">15 min context</text></g><g><path d="M 330 342 Q 330 351 330 360" class="dg-arrow" stroke="#2B4C6F" marker-end="url(#arrow)"></path></g></g><g><g><rect x="220" y="360" width="220" height="52" rx="7" ry="7" class="dg-node"></rect><text x="330" y="384" text-anchor="middle" dominant-baseline="middle" class="dg-text">Session 5</text><text x="330" y="400" text-anchor="middle" dominant-baseline="middle" class="dg-text--sub">20 min context</text></g></g><g><path d="M 500 90 Q 500 246 500 402" class="dg-arrow dg-arrow--accent" stroke="#C8873D" marker-end="url(#arrow-amber)"></path><text x="600" y="246" text-anchor="middle" dominant-baseline="middle" class="dg-text--edge">Manual overhead grows</text></g><text x="20" y="452" text-anchor="start" font-family="'Source Sans 3', 'Inter', sans-serif" font-size="11" font-weight="400" fill="#8B7D6B">By session five, you spend more time managing the AI than using it.</text></svg>