<svg xmlns="http://www.w3.org/2000/svg" viewBox="0 0 780 460" width="100%" style="max-width: 780px; display: block; background: transparent; font-family: 'Source Sans 3', 'Inter', sans-serif;"><defs><marker id="arrow" viewBox="0 0 8 8" refX="7" refY="4" markerWidth="6" markerHeight="6" orient="auto-start-reverse"><path d="M0,0 L8,4 L0,8 z" fill="#2B4C6F"></path></marker><marker id="arrow-amber" viewBox="0 0 8 8" refX="7" refY="4" markerWidth="6" markerHeight="6" orient="auto-start-reverse"><path d="M0,0 L8,4 L0,8 z" fill="#C8873D"></path></marker><marker id="arrow-red" viewBox="0 0 8 8" refX="7" refY="4" markerWidth="6" markerHeight="6" orient="auto-start-reverse"><path d="M0,0 L8,4 L0,8 z" fill="#C45B4A"></path></marker><marker id="arrow-green" viewBox="0 0 8 8" refX="7" refY="4" markerWidth="6" markerHeight="6" orient="auto-start-reverse"><path d="M0,0 L8,4 L0,8 z" fill="#5A8F6A"></path></marker><marker id="dot" viewBox="0 0 6 6" refX="3" refY="3" markerWidth="5" markerHeight="5"><circle cx="3" cy="3" r="2.5" fill="#2B4C6F"></circle></marker></defs><g><text x="20" y="14" font-family="'Source Sans 3', 'Inter', sans-serif" font-size="10" font-weight="600" letter-spacing="0.06em" fill="#8B7D6B">FIGURE 2.3</text><text x="20" y="28" font-family="'Source Sans 3', 'Inter', sans-serif" font-size="16" font-weight="600" fill="#2B4C6F">Sessions 1–5: each concept added manually</text></g><g><rect x="50" y="80" width="130" height="32" rx="16" ry="16" class="dg-node"></rect><text x="115" y="101" text-anchor="middle" font-family="'Source Sans 3', 'Inter', sans-serif" font-size="13" font-weight="600" fill="#2B4C6F">Session 1</text><g><rect x="50" y="130" width="130" height="30" rx="6" ry="6" fill="#2B4C6F" stroke="#2B4C6F" stroke-width="1.75"></rect><text x="115" y="149" text-anchor="middle" font-family="'Source Sans 3', 'Inter', sans-serif" font-size="12" font-weight="600" fill="#FFFFFF">Instruction</text></g><g><rect x="50" y="168" width="130" height="30" rx="6" ry="6" fill="#F7F3ED" stroke="#8B7D6B" stroke-width="1.75" stroke-dasharray="5 4"></rect><text x="115" y="187" text-anchor="middle" font-family="'Source Sans 3', 'Inter', sans-serif" font-size="12" font-weight="400" fill="#8B7D6B">Memory</text></g><g><rect x="50" y="206" width="130" height="30" rx="6" ry="6" fill="#F7F3ED" stroke="#8B7D6B" stroke-width="1.75" stroke-dasharray="5 4"></rect><text x="115" y="225" text-anchor="middle" font-family="'Source Sans 3', 'Inter', sans-serif" font-size="12" font-weight="400" fill="#8B7D6B">Control</text></g><g><rect x="50" y="244" width="130" height="30" rx="6" ry="6" fill="#F7F3ED" stroke="#8B7D6B" stroke-width="1.75" stroke-dasharray="5 4"></rect><text x="115" y="263" text-anchor="middle" font-family="'Source Sans 3', 'Inter', sans-serif" font-size="12" font-weight="400" fill="#8B7D6B">Flow</text></g></g><g><rect x="196" y="80" width="130" height="32" rx="16" ry="16" class="dg-node"></rect><text x="261" y="101" text-anchor="middle" font-family="'Source Sans 3', 'Inter', sans-serif" font-size="13" font-weight="600" fill="#2B4C6F">Session 2</text><g><rect x="196" y="130" width="130" height="30" rx="6" ry="6" fill="#2B4C6F" stroke="#2B4C6F" stroke-width="1.75"></rect><text x="261" y="149" text-anchor="middle" font-family="'Source Sans 3', 'Inter', sans-serif" font-size="12" font-weight="600" fill="#FFFFFF">Instruction</text></g><g><rect x="196" y="168" width="130" height="30" rx="6" ry="6" fill="#2B4C6F" stroke="#2B4C6F" stroke-width="1.75"></rect><text x="261" y="187" text-anchor="middle" font-family="'Source Sans 3', 'Inter', sans-serif" font-size="12" font-weight="600" fill="#FFFFFF">Memory</text></g><g><rect x="196" y="206" width="130" height="30" rx="6" ry="6" fill="#F7F3ED" stroke="#8B7D6B" stroke-width="1.75" stroke-dasharray="5 4"></rect><text x="261" y="225" text-anchor="middle" font-family="'Source Sans 3', 'Inter', sans-serif" font-size="12" font-weight="400" fill="#8B7D6B">Control</text></g><g><rect x="196" y="244" width="130" height="30" rx="6" ry="6" fill="#F7F3ED" stroke="#8B7D6B" stroke-width="1.75" stroke-dasharray="5 4"></rect><text x="261" y="263" text-anchor="middle" font-family="'Source Sans 3', 'Inter', sans-serif" font-size="12" font-weight="400" fill="#8B7D6B">Flow</text></g></g><g><rect x="342" y="80" width="130" height="32" rx="16" ry="16" class="dg-node"></rect><text x="407" y="101" text-anchor="middle" font-family="'Source Sans 3', 'Inter', sans-serif" font-size="13" font-weight="600" fill="#2B4C6F">Session 3</text><g><rect x="342" y="130" width="130" height="30" rx="6" ry="6" fill="#2B4C6F" stroke="#2B4C6F" stroke-width="1.75"></rect><text x="407" y="149" text-anchor="middle" font-family="'Source Sans 3', 'Inter', sans-serif" font-size="12" font-weight="600" fill="#FFFFFF">Instruction</text></g><g><rect x="342" y="168" width="130" height="30" rx="6" ry="6" fill="#2B4C6F" stroke="#2B4C6F" stroke-width="1.75"></rect><text x="407" y="187" text-anchor="middle" font-family="'Source Sans 3', 'Inter', sans-serif" font-size="12" font-weight="600" fill="#FFFFFF">Memory</text></g><g><rect x="342" y="206" width="130" height="30" rx="6" ry="6" fill="#2B4C6F" stroke="#2B4C6F" stroke-width="1.75"></rect><text x="407" y="225" text-anchor="middle" font-family="'Source Sans 3', 'Inter', sans-serif" font-size="12" font-weight="600" fill="#FFFFFF">Control</text></g><g><rect x="342" y="244" width="130" height="30" rx="6" ry="6" fill="#F7F3ED" stroke="#8B7D6B" stroke-width="1.75" stroke-dasharray="5 4"></rect><text x="407" y="263" text-anchor="middle" font-family="'Source Sans 3', 'Inter', sans-serif" font-size="12" font-weight="400" fill="#8B7D6B">Flow</text></g></g><g><rect x="488" y="80" width="130" height="32" rx="16" ry="16" class="dg-node"></rect><text x="553" y="101" text-anchor="middle" font-family="'Source Sans 3', 'Inter', sans-serif" font-size="13" font-weight="600" fill="#2B4C6F">Session 4</text><g><rect x="488" y="130" width="130" height="30" rx="6" ry="6" fill="#2B4C6F" stroke="#2B4C6F" stroke-width="1.75"></rect><text x="553" y="149" text-anchor="middle" font-family="'Source Sans 3', 'Inter', sans-serif" font-size="12" font-weight="600" fill="#FFFFFF">Instruction</text></g><g><rect x="488" y="168" width="130" height="30" rx="6" ry="6" fill="#2B4C6F" stroke="#2B4C6F" stroke-width="1.75"></rect><text x="553" y="187" text-anchor="middle" font-family="'Source Sans 3', 'Inter', sans-serif" font-size="12" font-weight="600" fill="#FFFFFF">Memory</text></g><g><rect x="488" y="206" width="130" height="30" rx="6" ry="6" fill="#2B4C6F" stroke="#2B4C6F" stroke-width="1.75"></rect><text x="553" y="225" text-anchor="middle" font-family="'Source Sans 3', 'Inter', sans-serif" font-size="12" font-weight="600" fill="#FFFFFF">Control</text></g><g><rect x="488" y="244" width="130" height="30" rx="6" ry="6" fill="#F7F3ED" stroke="#8B7D6B" stroke-width="1.75" stroke-dasharray="5 4"></rect><text x="553" y="263" text-anchor="middle" font-family="'Source Sans 3', 'Inter', sans-serif" font-size="12" font-weight="400" fill="#8B7D6B">Flow</text></g></g><g><rect x="634" y="80" width="130" height="32" rx="16" ry="16" class="dg-node"></rect><text x="699" y="101" text-anchor="middle" font-family="'Source Sans 3', 'Inter', sans-serif" font-size="13" font-weight="600" fill="#2B4C6F">Session 5</text><g><rect x="634" y="130" width="130" height="30" rx="6" ry="6" fill="#2B4C6F" stroke="#2B4C6F" stroke-width="1.75"></rect><text x="699" y="149" text-anchor="middle" font-family="'Source Sans 3', 'Inter', sans-serif" font-size="12" font-weight="600" fill="#FFFFFF">Instruction</text></g><g><rect x="634" y="168" width="130" height="30" rx="6" ry="6" fill="#2B4C6F" stroke="#2B4C6F" stroke-width="1.75"></rect><text x="699" y="187" text-anchor="middle" font-family="'Source Sans 3', 'Inter', sans-serif" font-size="12" font-weight="600" fill="#FFFFFF">Memory</text></g><g><rect x="634" y="206" width="130" height="30" rx="6" ry="6" fill="#2B4C6F" stroke="#2B4C6F" stroke-width="1.75"></rect><text x="699" y="225" text-anchor="middle" font-family="'Source Sans 3', 'Inter', sans-serif" font-size="12" font-weight="600" fill="#FFFFFF">Control</text></g><g><rect x="634" y="244" width="130" height="30" rx="6" ry="6" fill="#2B4C6F" stroke="#2B4C6F" stroke-width="1.75"></rect><text x="699" y="263" text-anchor="middle" font-family="'Source Sans 3', 'Inter', sans-serif" font-size="12" font-weight="600" fill="#FFFFFF">Flow</text></g></g><text x="20" y="440" text-anchor="start" font-family="'Source Sans 3', 'Inter', sans-serif" font-size="11" font-weight="400" fill="#8B7D6B">You're manually providing what the system should handle automatically.</text></svg>