<svg xmlns="http://www.w3.org/2000/svg" viewBox="0 0 920 500" width="100%" style="max-width: 920px; display: block; background: transparent; font-family: 'Source Sans 3', 'Inter', sans-serif;"><defs><marker id="arrow" viewBox="0 0 8 8" refX="7" refY="4" markerWidth="6" markerHeight="6" orient="auto-start-reverse"><path d="M0,0 L8,4 L0,8 z" fill="#2B4C6F"></path></marker><marker id="arrow-amber" viewBox="0 0 8 8" refX="7" refY="4" markerWidth="6" markerHeight="6" orient="auto-start-reverse"><path d="M0,0 L8,4 L0,8 z" fill="#C8873D"></path></marker><marker id="arrow-red" viewBox="0 0 8 8" refX="7" refY="4" markerWidth="6" markerHeight="6" orient="auto-start-reverse"><path d="M0,0 L8,4 L0,8 z" fill="#C45B4A"></path></marker><marker id="arrow-green" viewBox="0 0 8 8" refX="7" refY="4" markerWidth="6" markerHeight="6" orient="auto-start-reverse"><path d="M0,0 L8,4 L0,8 z" fill="#5A8F6A"></path></marker><marker id="dot" viewBox="0 0 6 6" refX="3" refY="3" markerWidth="5" markerHeight="5"><circle cx="3" cy="3" r="2.5" fill="#2B4C6F"></circle></marker></defs><g><text x="20" y="14" font-family="'Source Sans 3', 'Inter', sans-serif" font-size="10" font-weight="600" letter-spacing="0.06em" fill="#8B7D6B">FIGURE 3.4</text><text x="20" y="28" font-family="'Source Sans 3', 'Inter', sans-serif" font-size="16" font-weight="600" fill="#2B4C6F">Napkin sketch — all three patterns</text></g><g><rect x="40" y="70" width="380" height="150" rx="8" ry="8" fill="none" stroke="#2B4C6F" stroke-width="0.75" stroke-dasharray="3 3"></rect><text x="50" y="64" font-family="'Source Sans 3', 'Inter', sans-serif" font-size="10" font-weight="600" letter-spacing="0.06em" fill="#8B7D6B">ROUTER</text></g><g><rect x="70" y="106" width="150" height="56" rx="7" ry="7" class="dg-node"></rect><text x="145" y="132" text-anchor="middle" dominant-baseline="middle" class="dg-text">Weak areas</text><text x="145" y="148" text-anchor="middle" dominant-baseline="middle" class="dg-text--sub">from state</text></g><g><polygon points="340,98 410,140 340,182 270,140" class="dg-decision"></polygon><text x="340" y="136" text-anchor="middle" dominant-baseline="middle" class="dg-text">Topic</text><text x="340" y="152" text-anchor="middle" dominant-baseline="middle" class="dg-text--sub">which?</text></g><g><path d="M 220 134 Q 246.5 134 273 134" class="dg-arrow" stroke="#2B4C6F" marker-end="url(#arrow)"></path></g><g><rect x="460" y="70" width="420" height="300" rx="8" ry="8" fill="none" stroke="#2B4C6F" stroke-width="0.75" stroke-dasharray="3 3"></rect><text x="470" y="64" font-family="'Source Sans 3', 'Inter', sans-serif" font-size="10" font-weight="600" letter-spacing="0.06em" fill="#8B7D6B">LOOP</text></g><g><rect x="500" y="110" width="160" height="56" rx="7" ry="7" class="dg-node"></rect><text x="580" y="143" text-anchor="middle" dominant-baseline="middle" class="dg-text">Ask a question</text></g><g><path d="M 407 134 Q 453.5 136 500 138" class="dg-arrow" stroke="#2B4C6F" marker-end="url(#arrow)"></path></g><g><rect x="690" y="110" width="170" height="210" rx="8" ry="8" fill="none" stroke="#2B4C6F" stroke-width="0.75" stroke-dasharray="3 3"></rect><text x="700" y="104" font-family="'Source Sans 3', 'Inter', sans-serif" font-size="10" font-weight="600" letter-spacing="0.06em" fill="#8B7D6B">GATE</text></g><g><polygon points="775,150 845,196 775,242 705,196" class="dg-decision"></polygon><text x="775" y="192" text-anchor="middle" dominant-baseline="middle" class="dg-text">Answer</text><text x="775" y="208" text-anchor="middle" dominant-baseline="middle" class="dg-text--sub">correct?</text></g><g><path d="M 660 138 Q 685.5 153 711 168" class="dg-arrow" stroke="#2B4C6F" marker-end="url(#arrow)"></path></g><g><rect x="500" y="300" width="160" height="56" rx="7" ry="7" class="dg-node dg-node--highlight"></rect><text x="580" y="333" text-anchor="middle" dominant-baseline="middle" class="dg-text">Drill again</text></g><g><rect x="690" y="344" width="170" height="48" rx="7" ry="7" class="dg-node dg-node--success"></rect><text x="775" y="373" text-anchor="middle" dominant-baseline="middle" class="dg-text">Mark mastered</text></g><g><path d="M 775 242 Q 775 293 775 344" class="dg-arrow" stroke="#5A8F6A" marker-end="url(#arrow-green)"></path><text x="785" y="293" text-anchor="middle" dominant-baseline="middle" class="dg-text--edge">yes</text></g><g><path d="M 715 224 Q 713.5305916187955 286.9133597816016 660 320" class="dg-arrow" stroke="#2B4C6F" marker-end="url(#arrow)"></path><text x="710.927532456916" y="285.42202380344145" text-anchor="middle" dominant-baseline="middle" class="dg-text--edge">no</text></g><g><path d="M 500 328 Q 440 247 500 166" class="dg-arrow" stroke="#2B4C6F" marker-end="url(#arrow)"></path></g><text x="20" y="476" text-anchor="start" font-family="'Source Sans 3', 'Inter', sans-serif" font-size="11" font-weight="400" fill="#8B7D6B">One system, three patterns. The napkin sketch becomes the blueprint.</text></svg>