<svg xmlns="http://www.w3.org/2000/svg" viewBox="0 0 780 420" width="100%" style="max-width: 780px; display: block; background: transparent; font-family: 'Source Sans 3', 'Inter', sans-serif;"><defs><marker id="arrow" viewBox="0 0 8 8" refX="7" refY="4" markerWidth="6" markerHeight="6" orient="auto-start-reverse"><path d="M0,0 L8,4 L0,8 z" fill="#2B4C6F"></path></marker><marker id="arrow-amber" viewBox="0 0 8 8" refX="7" refY="4" markerWidth="6" markerHeight="6" orient="auto-start-reverse"><path d="M0,0 L8,4 L0,8 z" fill="#C8873D"></path></marker><marker id="arrow-red" viewBox="0 0 8 8" refX="7" refY="4" markerWidth="6" markerHeight="6" orient="auto-start-reverse"><path d="M0,0 L8,4 L0,8 z" fill="#C45B4A"></path></marker><marker id="arrow-green" viewBox="0 0 8 8" refX="7" refY="4" markerWidth="6" markerHeight="6" orient="auto-start-reverse"><path d="M0,0 L8,4 L0,8 z" fill="#5A8F6A"></path></marker><marker id="dot" viewBox="0 0 6 6" refX="3" refY="3" markerWidth="5" markerHeight="5"><circle cx="3" cy="3" r="2.5" fill="#2B4C6F"></circle></marker></defs><g><text x="20" y="14" font-family="'Source Sans 3', 'Inter', sans-serif" font-size="10" font-weight="600" letter-spacing="0.06em" fill="#8B7D6B">FIGURE 3.3</text><text x="20" y="28" font-family="'Source Sans 3', 'Inter', sans-serif" font-size="16" font-weight="600" fill="#2B4C6F">Pattern 3 — the router</text></g><g><rect x="310" y="70" width="160" height="56" rx="7" ry="7" class="dg-node"></rect><text x="390" y="103" text-anchor="middle" dominant-baseline="middle" class="dg-text">Input</text></g><g><path d="M 390 126 Q 390 141 390 156" class="dg-arrow" stroke="#2B4C6F" marker-end="url(#arrow)"></path></g><g><polygon points="390,156 490,210 390,264 290,210" class="dg-decision"></polygon><text x="390" y="206" text-anchor="middle" dominant-baseline="middle" class="dg-text">Decision point</text><text x="390" y="222" text-anchor="middle" dominant-baseline="middle" class="dg-text--sub">which path?</text></g><g><rect x="70" y="320" width="180" height="64" rx="7" ry="7" class="dg-node"></rect><text x="160" y="350" text-anchor="middle" dominant-baseline="middle" class="dg-text">Path A</text><text x="160" y="366" text-anchor="middle" dominant-baseline="middle" class="dg-text--sub">simple request</text></g><g><rect x="300" y="320" width="180" height="64" rx="7" ry="7" class="dg-node"></rect><text x="390" y="350" text-anchor="middle" dominant-baseline="middle" class="dg-text">Path B</text><text x="390" y="366" text-anchor="middle" dominant-baseline="middle" class="dg-text--sub">complex request</text></g><g><rect x="530" y="320" width="180" height="64" rx="7" ry="7" class="dg-node"></rect><text x="620" y="350" text-anchor="middle" dominant-baseline="middle" class="dg-text">Path C</text><text x="620" y="366" text-anchor="middle" dominant-baseline="middle" class="dg-text--sub">edge case</text></g><g><path d="M 310 240 Q 246.76470588235293 302.05882352941177 160 320" class="dg-arrow" stroke="#2B4C6F" marker-end="url(#arrow)"></path></g><g><path d="M 390 264 Q 390 292 390 320" class="dg-arrow" stroke="#2B4C6F" marker-end="url(#arrow)"></path></g><g><path d="M 470 240 Q 533.2352941176471 302.05882352941177 620 320" class="dg-arrow" stroke="#2B4C6F" marker-end="url(#arrow)"></path></g><text x="20" y="400" text-anchor="start" font-family="'Source Sans 3', 'Inter', sans-serif" font-size="11" font-weight="400" fill="#8B7D6B">Different inputs take different paths through the system.</text></svg>