<svg xmlns="http://www.w3.org/2000/svg" viewBox="0 0 960 500" width="100%" style="max-width: 960px; display: block; background: transparent; font-family: 'Source Sans 3', 'Inter', sans-serif;"><defs><marker id="arrow" viewBox="0 0 8 8" refX="7" refY="4" markerWidth="6" markerHeight="6" orient="auto-start-reverse"><path d="M0,0 L8,4 L0,8 z" fill="#2B4C6F"></path></marker><marker id="arrow-amber" viewBox="0 0 8 8" refX="7" refY="4" markerWidth="6" markerHeight="6" orient="auto-start-reverse"><path d="M0,0 L8,4 L0,8 z" fill="#C8873D"></path></marker><marker id="arrow-red" viewBox="0 0 8 8" refX="7" refY="4" markerWidth="6" markerHeight="6" orient="auto-start-reverse"><path d="M0,0 L8,4 L0,8 z" fill="#C45B4A"></path></marker><marker id="arrow-green" viewBox="0 0 8 8" refX="7" refY="4" markerWidth="6" markerHeight="6" orient="auto-start-reverse"><path d="M0,0 L8,4 L0,8 z" fill="#5A8F6A"></path></marker><marker id="dot" viewBox="0 0 6 6" refX="3" refY="3" markerWidth="5" markerHeight="5"><circle cx="3" cy="3" r="2.5" fill="#2B4C6F"></circle></marker></defs><g><text x="20" y="14" font-family="'Source Sans 3', 'Inter', sans-serif" font-size="10" font-weight="600" letter-spacing="0.06em" fill="#8B7D6B">FIGURE 5.1</text><text x="20" y="28" font-family="'Source Sans 3', 'Inter', sans-serif" font-size="16" font-weight="600" fill="#2B4C6F">v2 — the feedback loop appears</text></g><g><g><rect x="60" y="80" width="200" height="56" rx="7" ry="7" class="dg-node"></rect><text x="160" y="113" text-anchor="middle" dominant-baseline="middle" class="dg-text">Your prompt</text></g><g><rect x="40" y="170" width="240" height="170" rx="8" ry="8" fill="none" stroke="#2B4C6F" stroke-width="0.75" stroke-dasharray="3 3"></rect><text x="50" y="164" font-family="'Source Sans 3', 'Inter', sans-serif" font-size="10" font-weight="600" letter-spacing="0.06em" fill="#8B7D6B">AUTO-LOADED FILES</text></g><g><rect x="60" y="196" width="200" height="56" rx="7" ry="7" class="dg-node"></rect><text x="160" y="222" text-anchor="middle" dominant-baseline="middle" class="dg-text">Root CLAUDE.md</text><text x="160" y="238" text-anchor="middle" dominant-baseline="middle" class="dg-text--sub">shared rules</text></g><g><rect x="60" y="268" width="200" height="56" rx="7" ry="7" class="dg-node"></rect><text x="160" y="294" text-anchor="middle" dominant-baseline="middle" class="dg-text">System CLAUDE.md</text><text x="160" y="310" text-anchor="middle" dominant-baseline="middle" class="dg-text--sub">topic + constraints</text></g><g><path d="M 260 108 Q 330.03057751483834 171.33812606115072 420 200" class="dg-arrow" stroke="#2B4C6F" marker-end="url(#arrow)"></path></g><g><path d="M 260 224 Q 340 220 420 216" class="dg-arrow dg-arrow--dashed" stroke="#2B4C6F" marker-end="url(#arrow)"></path></g><g><path d="M 260 296 Q 328.8582797093769 236.14569927344223 420 232" class="dg-arrow dg-arrow--dashed" stroke="#2B4C6F" marker-end="url(#arrow)"></path></g></g><g><rect x="420" y="180" width="170" height="72" rx="7" ry="7" class="dg-node dg-node--active"></rect><text x="505" y="221" text-anchor="middle" dominant-baseline="middle" class="dg-text dg-text--inverse">Claude</text></g><g><rect x="660" y="184" width="180" height="64" rx="7" ry="7" class="dg-node"></rect><text x="750" y="214" text-anchor="middle" dominant-baseline="middle" class="dg-text">Output</text><text x="750" y="230" text-anchor="middle" dominant-baseline="middle" class="dg-text--sub">quiz, draft, plan</text></g><g><path d="M 590 216 Q 625 216 660 216" class="dg-arrow" stroke="#2B4C6F" marker-end="url(#arrow)"></path></g><g><rect x="620" y="310" width="260" height="130" rx="8" ry="8" fill="none" stroke="#2B4C6F" stroke-width="0.75" stroke-dasharray="3 3"></rect><text x="630" y="304" font-family="'Source Sans 3', 'Inter', sans-serif" font-size="10" font-weight="600" letter-spacing="0.06em" fill="#8B7D6B">NEW: MEMORY</text></g><g><rect x="650" y="344" width="200" height="64" rx="7" ry="7" class="dg-node dg-node--highlight"></rect><text x="750" y="374" text-anchor="middle" dominant-baseline="middle" class="dg-text">State file</text><text x="750" y="390" text-anchor="middle" dominant-baseline="middle" class="dg-text--sub">study-state.md</text></g><g><path d="M 750 248 Q 750 296 750 344" class="dg-arrow dg-arrow--accent" stroke="#C8873D" marker-end="url(#arrow-amber)"></path></g><g><path d="M 650 376 Q 616.4956602750601 268.4002359686797 505 252" class="dg-arrow dg-arrow--accent dg-arrow--dashed" stroke="#C8873D" marker-end="url(#arrow-amber)"></path></g><text x="20" y="476" text-anchor="start" font-family="'Source Sans 3', 'Inter', sans-serif" font-size="11" font-weight="400" fill="#8B7D6B">State persists between sessions. The system now remembers.</text></svg>