<svg xmlns="http://www.w3.org/2000/svg" viewBox="0 0 1040 560" width="100%" style="max-width: 1040px; display: block; background: transparent; font-family: 'Source Sans 3', 'Inter', sans-serif;"><defs><marker id="arrow" viewBox="0 0 8 8" refX="7" refY="4" markerWidth="6" markerHeight="6" orient="auto-start-reverse"><path d="M0,0 L8,4 L0,8 z" fill="#2B4C6F"></path></marker><marker id="arrow-amber" viewBox="0 0 8 8" refX="7" refY="4" markerWidth="6" markerHeight="6" orient="auto-start-reverse"><path d="M0,0 L8,4 L0,8 z" fill="#C8873D"></path></marker><marker id="arrow-red" viewBox="0 0 8 8" refX="7" refY="4" markerWidth="6" markerHeight="6" orient="auto-start-reverse"><path d="M0,0 L8,4 L0,8 z" fill="#C45B4A"></path></marker><marker id="arrow-green" viewBox="0 0 8 8" refX="7" refY="4" markerWidth="6" markerHeight="6" orient="auto-start-reverse"><path d="M0,0 L8,4 L0,8 z" fill="#5A8F6A"></path></marker><marker id="dot" viewBox="0 0 6 6" refX="3" refY="3" markerWidth="5" markerHeight="5"><circle cx="3" cy="3" r="2.5" fill="#2B4C6F"></circle></marker></defs><g><text x="20" y="14" font-family="'Source Sans 3', 'Inter', sans-serif" font-size="10" font-weight="600" letter-spacing="0.06em" fill="#8B7D6B">FIGURE 8.1</text><text x="20" y="28" font-family="'Source Sans 3', 'Inter', sans-serif" font-size="16" font-weight="600" fill="#2B4C6F">v5 — connected to the outside world</text></g><g><g><rect x="60" y="80" width="200" height="56" rx="7" ry="7" class="dg-node"></rect><text x="160" y="113" text-anchor="middle" dominant-baseline="middle" class="dg-text">Your prompt</text></g><g><rect x="40" y="170" width="240" height="170" rx="8" ry="8" fill="none" stroke="#2B4C6F" stroke-width="0.75" stroke-dasharray="3 3"></rect><text x="50" y="164" font-family="'Source Sans 3', 'Inter', sans-serif" font-size="10" font-weight="600" letter-spacing="0.06em" fill="#8B7D6B">AUTO-LOADED FILES</text></g><g><rect x="60" y="196" width="200" height="56" rx="7" ry="7" class="dg-node"></rect><text x="160" y="222" text-anchor="middle" dominant-baseline="middle" class="dg-text">Root CLAUDE.md</text><text x="160" y="238" text-anchor="middle" dominant-baseline="middle" class="dg-text--sub">shared rules</text></g><g><rect x="60" y="268" width="200" height="56" rx="7" ry="7" class="dg-node"></rect><text x="160" y="294" text-anchor="middle" dominant-baseline="middle" class="dg-text">System CLAUDE.md</text><text x="160" y="310" text-anchor="middle" dominant-baseline="middle" class="dg-text--sub">topic + constraints</text></g><g><path d="M 260 108 Q 330.03057751483834 171.33812606115072 420 200" class="dg-arrow" stroke="#2B4C6F" marker-end="url(#arrow)"></path></g><g><path d="M 260 224 Q 340 220 420 216" class="dg-arrow dg-arrow--dashed" stroke="#2B4C6F" marker-end="url(#arrow)"></path></g><g><path d="M 260 296 Q 328.8582797093769 236.14569927344223 420 232" class="dg-arrow dg-arrow--dashed" stroke="#2B4C6F" marker-end="url(#arrow)"></path></g></g><g><rect x="420" y="180" width="170" height="72" rx="7" ry="7" class="dg-node dg-node--active"></rect><text x="505" y="221" text-anchor="middle" dominant-baseline="middle" class="dg-text dg-text--inverse">Claude</text></g><g><rect x="380" y="50" width="250" height="96" rx="8" ry="8" fill="none" stroke="#2B4C6F" stroke-width="0.75" stroke-dasharray="3 3"></rect><text x="390" y="44" font-family="'Source Sans 3', 'Inter', sans-serif" font-size="10" font-weight="600" letter-spacing="0.06em" fill="#8B7D6B">INSTRUCTION</text></g><g><rect x="410" y="76" width="190" height="56" rx="7" ry="7" class="dg-node"></rect><text x="505" y="102" text-anchor="middle" dominant-baseline="middle" class="dg-text">Skills</text><text x="505" y="118" text-anchor="middle" dominant-baseline="middle" class="dg-text--sub">study-expert.md</text></g><g><path d="M 505 132 Q 505 156 505 180" class="dg-arrow dg-arrow--dashed" stroke="#2B4C6F" marker-end="url(#arrow)"></path></g><g><rect x="420" y="420" width="260" height="120" rx="8" ry="8" fill="none" stroke="#2B4C6F" stroke-width="0.75" stroke-dasharray="3 3"></rect><text x="430" y="414" font-family="'Source Sans 3', 'Inter', sans-serif" font-size="10" font-weight="600" letter-spacing="0.06em" fill="#8B7D6B">MEMORY</text></g><g><rect x="450" y="452" width="200" height="56" rx="7" ry="7" class="dg-node"></rect><text x="550" y="478" text-anchor="middle" dominant-baseline="middle" class="dg-text">State file</text><text x="550" y="494" text-anchor="middle" dominant-baseline="middle" class="dg-text--sub">study-state.md</text></g><g><rect x="620" y="150" width="220" height="170" rx="8" ry="8" fill="none" stroke="#2B4C6F" stroke-width="0.75" stroke-dasharray="3 3"></rect><text x="630" y="144" font-family="'Source Sans 3', 'Inter', sans-serif" font-size="10" font-weight="600" letter-spacing="0.06em" fill="#8B7D6B">CONTROL</text></g><g><polygon points="730,168 815,216 730,264 645,216" class="dg-decision"></polygon><text x="730" y="212" text-anchor="middle" dominant-baseline="middle" class="dg-text">Hooks</text><text x="730" y="228" text-anchor="middle" dominant-baseline="middle" class="dg-text--sub">pass or fail?</text></g><g><path d="M 590 216 Q 617.5 216 645 216" class="dg-arrow" stroke="#2B4C6F" marker-end="url(#arrow)"></path></g><g><rect x="870" y="184" width="120" height="64" rx="7" ry="7" class="dg-node"></rect><text x="930" y="214" text-anchor="middle" dominant-baseline="middle" class="dg-text">Output</text><text x="930" y="230" text-anchor="middle" dominant-baseline="middle" class="dg-text--sub">quiz, draft</text></g><g><path d="M 815 216 Q 842.5 216 870 216" class="dg-arrow" stroke="#5A8F6A" marker-end="url(#arrow-green)"></path><text x="842.5" y="206" text-anchor="middle" dominant-baseline="middle" class="dg-text--edge">pass</text></g><g><path d="M 930 248 Q 683.2408003623559 244.27207910634928 550 452" class="dg-arrow dg-arrow--dashed" stroke="#2B4C6F" marker-end="url(#arrow)"></path></g><g><rect x="40" y="400" width="300" height="130" rx="8" ry="8" fill="none" stroke="#2B4C6F" stroke-width="0.75" stroke-dasharray="3 3"></rect><text x="50" y="394" font-family="'Source Sans 3', 'Inter', sans-serif" font-size="10" font-weight="600" letter-spacing="0.06em" fill="#8B7D6B">NEW: CONNECTIONS</text></g><g><rect x="70" y="432" width="240" height="70" rx="7" ry="7" class="dg-node dg-node--highlight"></rect><text x="190" y="465" text-anchor="middle" dominant-baseline="middle" class="dg-text">External sources</text><text x="190" y="481" text-anchor="middle" dominant-baseline="middle" class="dg-text--sub">APIs, web search, databases</text></g><g><path d="M 310 466 Q 293.849250296548 322.42718473187045 420 252" class="dg-arrow dg-arrow--accent dg-arrow--dashed" stroke="#C8873D" marker-end="url(#arrow-amber)"></path></g><text x="20" y="552" text-anchor="start" font-family="'Source Sans 3', 'Inter', sans-serif" font-size="11" font-weight="400" fill="#8B7D6B">The system pulls live data instead of relying on stale training knowledge.</text></svg>