<svg xmlns="http://www.w3.org/2000/svg" viewBox="0 0 1080 620" width="100%" style="max-width: 1080px; display: block; background: transparent; font-family: 'Source Sans 3', 'Inter', sans-serif;"><defs><marker id="arrow" viewBox="0 0 8 8" refX="7" refY="4" markerWidth="6" markerHeight="6" orient="auto-start-reverse"><path d="M0,0 L8,4 L0,8 z" fill="#2B4C6F"></path></marker><marker id="arrow-amber" viewBox="0 0 8 8" refX="7" refY="4" markerWidth="6" markerHeight="6" orient="auto-start-reverse"><path d="M0,0 L8,4 L0,8 z" fill="#C8873D"></path></marker><marker id="arrow-red" viewBox="0 0 8 8" refX="7" refY="4" markerWidth="6" markerHeight="6" orient="auto-start-reverse"><path d="M0,0 L8,4 L0,8 z" fill="#C45B4A"></path></marker><marker id="arrow-green" viewBox="0 0 8 8" refX="7" refY="4" markerWidth="6" markerHeight="6" orient="auto-start-reverse"><path d="M0,0 L8,4 L0,8 z" fill="#5A8F6A"></path></marker><marker id="dot" viewBox="0 0 6 6" refX="3" refY="3" markerWidth="5" markerHeight="5"><circle cx="3" cy="3" r="2.5" fill="#2B4C6F"></circle></marker></defs><g><text x="20" y="14" font-family="'Source Sans 3', 'Inter', sans-serif" font-size="10" font-weight="600" letter-spacing="0.06em" fill="#8B7D6B">FIGURE 9.1</text><text x="20" y="28" font-family="'Source Sans 3', 'Inter', sans-serif" font-size="16" font-weight="600" fill="#2B4C6F">Complete system — all six components</text></g><g><rect x="40" y="70" width="912" height="264" rx="8" ry="8" fill="none" stroke="#2B4C6F" stroke-width="0.75" stroke-dasharray="3 3"></rect><text x="50" y="64" font-family="'Source Sans 3', 'Inter', sans-serif" font-size="10" font-weight="600" letter-spacing="0.06em" fill="#8B7D6B">FOUR THROUGHLINE SYSTEMS</text></g><g><rect x="60" y="90" width="200" height="40" rx="7" ry="7" fill="#2B4C6F" stroke="#2B4C6F" stroke-width="1.75"></rect><text x="160" y="115" text-anchor="middle" font-family="'Source Sans 3', 'Inter', sans-serif" font-size="14" font-weight="600" fill="#FFFFFF">Study</text><g><rect x="60" y="146" width="200" height="50" rx="7" ry="7" class="dg-node"></rect><text x="160" y="169" text-anchor="middle" dominant-baseline="middle" class="dg-text">CLAUDE.md</text><text x="160" y="185" text-anchor="middle" dominant-baseline="middle" class="dg-text--sub">study/CLAUDE.md</text></g><g><rect x="60" y="208" width="200" height="50" rx="7" ry="7" class="dg-node"></rect><text x="160" y="231" text-anchor="middle" dominant-baseline="middle" class="dg-text">State</text><text x="160" y="247" text-anchor="middle" dominant-baseline="middle" class="dg-text--sub">study-state.md</text></g><g><rect x="60" y="270" width="200" height="50" rx="7" ry="7" class="dg-node"></rect><text x="160" y="293" text-anchor="middle" dominant-baseline="middle" class="dg-text">Skills</text><text x="160" y="309" text-anchor="middle" dominant-baseline="middle" class="dg-text--sub">study-expert.md</text></g></g><g><rect x="284" y="90" width="200" height="40" rx="7" ry="7" fill="#2B4C6F" stroke="#2B4C6F" stroke-width="1.75"></rect><text x="384" y="115" text-anchor="middle" font-family="'Source Sans 3', 'Inter', sans-serif" font-size="14" font-weight="600" fill="#FFFFFF">Job hunt</text><g><rect x="284" y="146" width="200" height="50" rx="7" ry="7" class="dg-node"></rect><text x="384" y="169" text-anchor="middle" dominant-baseline="middle" class="dg-text">CLAUDE.md</text><text x="384" y="185" text-anchor="middle" dominant-baseline="middle" class="dg-text--sub">jobs/CLAUDE.md</text></g><g><rect x="284" y="208" width="200" height="50" rx="7" ry="7" class="dg-node"></rect><text x="384" y="231" text-anchor="middle" dominant-baseline="middle" class="dg-text">State</text><text x="384" y="247" text-anchor="middle" dominant-baseline="middle" class="dg-text--sub">job-state.md</text></g><g><rect x="284" y="270" width="200" height="50" rx="7" ry="7" class="dg-node"></rect><text x="384" y="293" text-anchor="middle" dominant-baseline="middle" class="dg-text">Skills</text><text x="384" y="309" text-anchor="middle" dominant-baseline="middle" class="dg-text--sub">recruiter.md</text></g></g><g><rect x="508" y="90" width="200" height="40" rx="7" ry="7" fill="#2B4C6F" stroke="#2B4C6F" stroke-width="1.75"></rect><text x="608" y="115" text-anchor="middle" font-family="'Source Sans 3', 'Inter', sans-serif" font-size="14" font-weight="600" fill="#FFFFFF">Project mgmt</text><g><rect x="508" y="146" width="200" height="50" rx="7" ry="7" class="dg-node"></rect><text x="608" y="169" text-anchor="middle" dominant-baseline="middle" class="dg-text">CLAUDE.md</text><text x="608" y="185" text-anchor="middle" dominant-baseline="middle" class="dg-text--sub">projects/CLAUDE.md</text></g><g><rect x="508" y="208" width="200" height="50" rx="7" ry="7" class="dg-node"></rect><text x="608" y="231" text-anchor="middle" dominant-baseline="middle" class="dg-text">State</text><text x="608" y="247" text-anchor="middle" dominant-baseline="middle" class="dg-text--sub">project-state.md</text></g><g><rect x="508" y="270" width="200" height="50" rx="7" ry="7" class="dg-node"></rect><text x="608" y="293" text-anchor="middle" dominant-baseline="middle" class="dg-text">Skills</text><text x="608" y="309" text-anchor="middle" dominant-baseline="middle" class="dg-text--sub">pm-expert.md</text></g></g><g><rect x="732" y="90" width="200" height="40" rx="7" ry="7" fill="#2B4C6F" stroke="#2B4C6F" stroke-width="1.75"></rect><text x="832" y="115" text-anchor="middle" font-family="'Source Sans 3', 'Inter', sans-serif" font-size="14" font-weight="600" fill="#FFFFFF">Content</text><g><rect x="732" y="146" width="200" height="50" rx="7" ry="7" class="dg-node"></rect><text x="832" y="169" text-anchor="middle" dominant-baseline="middle" class="dg-text">CLAUDE.md</text><text x="832" y="185" text-anchor="middle" dominant-baseline="middle" class="dg-text--sub">content/CLAUDE.md</text></g><g><rect x="732" y="208" width="200" height="50" rx="7" ry="7" class="dg-node"></rect><text x="832" y="231" text-anchor="middle" dominant-baseline="middle" class="dg-text">State</text><text x="832" y="247" text-anchor="middle" dominant-baseline="middle" class="dg-text--sub">content-state.md</text></g><g><rect x="732" y="270" width="200" height="50" rx="7" ry="7" class="dg-node"></rect><text x="832" y="293" text-anchor="middle" dominant-baseline="middle" class="dg-text">Skills</text><text x="832" y="309" text-anchor="middle" dominant-baseline="middle" class="dg-text--sub">editor.md</text></g></g><g><g><rect x="40" y="342" width="912" height="120" rx="8" ry="8" fill="none" stroke="#2B4C6F" stroke-width="0.75" stroke-dasharray="3 3"></rect><text x="50" y="336" font-family="'Source Sans 3', 'Inter', sans-serif" font-size="10" font-weight="600" letter-spacing="0.06em" fill="#8B7D6B">SHARED · .CLAUDE/</text></g><g><rect x="60" y="376" width="274.6666666666667" height="64" rx="7" ry="7" class="dg-node"></rect><text x="197.33333333333334" y="406" text-anchor="middle" dominant-baseline="middle" class="dg-text">Hooks</text><text x="197.33333333333334" y="422" text-anchor="middle" dominant-baseline="middle" class="dg-text--sub">quality + safety checks</text></g><g><rect x="358.6666666666667" y="376" width="274.6666666666667" height="64" rx="7" ry="7" class="dg-node"></rect><text x="496" y="406" text-anchor="middle" dominant-baseline="middle" class="dg-text">Commands</text><text x="496" y="422" text-anchor="middle" dominant-baseline="middle" class="dg-text--sub">reusable actions</text></g><g><rect x="657.3333333333334" y="376" width="274.6666666666667" height="64" rx="7" ry="7" class="dg-node"></rect><text x="794.6666666666667" y="406" text-anchor="middle" dominant-baseline="middle" class="dg-text">Connections</text><text x="794.6666666666667" y="422" text-anchor="middle" dominant-baseline="middle" class="dg-text--sub">APIs, web, data</text></g></g><text x="20" y="596" text-anchor="start" font-family="'Source Sans 3', 'Inter', sans-serif" font-size="11" font-weight="400" fill="#8B7D6B">All six components across all four systems. The complete architecture.</text></svg>