<svg xmlns="http://www.w3.org/2000/svg" viewBox="0 0 900 532" width="100%" style="max-width: 900px; display: block; background: transparent; font-family: 'Source Sans 3', 'Inter', sans-serif;"><defs><marker id="arrow" viewBox="0 0 8 8" refX="7" refY="4" markerWidth="6" markerHeight="6" orient="auto-start-reverse"><path d="M0,0 L8,4 L0,8 z" fill="#2B4C6F"></path></marker><marker id="arrow-amber" viewBox="0 0 8 8" refX="7" refY="4" markerWidth="6" markerHeight="6" orient="auto-start-reverse"><path d="M0,0 L8,4 L0,8 z" fill="#C8873D"></path></marker><marker id="arrow-red" viewBox="0 0 8 8" refX="7" refY="4" markerWidth="6" markerHeight="6" orient="auto-start-reverse"><path d="M0,0 L8,4 L0,8 z" fill="#C45B4A"></path></marker><marker id="arrow-green" viewBox="0 0 8 8" refX="7" refY="4" markerWidth="6" markerHeight="6" orient="auto-start-reverse"><path d="M0,0 L8,4 L0,8 z" fill="#5A8F6A"></path></marker><marker id="dot" viewBox="0 0 6 6" refX="3" refY="3" markerWidth="5" markerHeight="5"><circle cx="3" cy="3" r="2.5" fill="#2B4C6F"></circle></marker></defs><g><text x="20" y="14" font-family="'Source Sans 3', 'Inter', sans-serif" font-size="10" font-weight="600" letter-spacing="0.06em" fill="#8B7D6B">FIGURE 10.4</text><text x="20" y="28" font-family="'Source Sans 3', 'Inter', sans-serif" font-size="16" font-weight="600" fill="#2B4C6F">Your components vs production</text></g><g><rect x="40" y="70" width="280" height="402" rx="8" ry="8" fill="none" stroke="#2B4C6F" stroke-width="0.75" stroke-dasharray="3 3"></rect><text x="50" y="64" font-family="'Source Sans 3', 'Inter', sans-serif" font-size="10" font-weight="600" letter-spacing="0.06em" fill="#8B7D6B">WHAT YOU BUILT</text></g><g><rect x="560" y="70" width="280" height="402" rx="8" ry="8" fill="none" stroke="#2B4C6F" stroke-width="0.75" stroke-dasharray="3 3"></rect><text x="570" y="64" font-family="'Source Sans 3', 'Inter', sans-serif" font-size="10" font-weight="600" letter-spacing="0.06em" fill="#8B7D6B">PRODUCTION SYSTEM</text></g><g><g><rect x="60" y="100" width="240" height="50" rx="7" ry="7" class="dg-node"></rect><text x="180" y="130" text-anchor="middle" dominant-baseline="middle" class="dg-text">CLAUDE.md</text></g><g><rect x="580" y="100" width="240" height="50" rx="7" ry="7" class="dg-node"></rect><text x="700" y="130" text-anchor="middle" dominant-baseline="middle" class="dg-text">System prompt</text></g><g><path d="M 300 125 Q 440 125 580 125" class="dg-arrow dg-arrow--dashed" stroke="#2B4C6F" marker-end="url(#arrow)"></path></g></g><g><g><rect x="60" y="162" width="240" height="50" rx="7" ry="7" class="dg-node"></rect><text x="180" y="192" text-anchor="middle" dominant-baseline="middle" class="dg-text">State file</text></g><g><rect x="580" y="162" width="240" height="50" rx="7" ry="7" class="dg-node"></rect><text x="700" y="192" text-anchor="middle" dominant-baseline="middle" class="dg-text">Database</text></g><g><path d="M 300 187 Q 440 187 580 187" class="dg-arrow dg-arrow--dashed" stroke="#2B4C6F" marker-end="url(#arrow)"></path></g></g><g><g><rect x="60" y="224" width="240" height="50" rx="7" ry="7" class="dg-node"></rect><text x="180" y="254" text-anchor="middle" dominant-baseline="middle" class="dg-text">Skills</text></g><g><rect x="580" y="224" width="240" height="50" rx="7" ry="7" class="dg-node"></rect><text x="700" y="254" text-anchor="middle" dominant-baseline="middle" class="dg-text">Fine-tuned models</text></g><g><path d="M 300 249 Q 440 249 580 249" class="dg-arrow dg-arrow--dashed" stroke="#2B4C6F" marker-end="url(#arrow)"></path></g></g><g><g><rect x="60" y="286" width="240" height="50" rx="7" ry="7" class="dg-node"></rect><text x="180" y="316" text-anchor="middle" dominant-baseline="middle" class="dg-text">Hooks</text></g><g><rect x="580" y="286" width="240" height="50" rx="7" ry="7" class="dg-node"></rect><text x="700" y="316" text-anchor="middle" dominant-baseline="middle" class="dg-text">Eval suite</text></g><g><path d="M 300 311 Q 440 311 580 311" class="dg-arrow dg-arrow--dashed" stroke="#2B4C6F" marker-end="url(#arrow)"></path></g></g><g><g><rect x="60" y="348" width="240" height="50" rx="7" ry="7" class="dg-node"></rect><text x="180" y="378" text-anchor="middle" dominant-baseline="middle" class="dg-text">Connections</text></g><g><rect x="580" y="348" width="240" height="50" rx="7" ry="7" class="dg-node"></rect><text x="700" y="378" text-anchor="middle" dominant-baseline="middle" class="dg-text">API integrations</text></g><g><path d="M 300 373 Q 440 373 580 373" class="dg-arrow dg-arrow--dashed" stroke="#2B4C6F" marker-end="url(#arrow)"></path></g></g><g><g><rect x="60" y="410" width="240" height="50" rx="7" ry="7" class="dg-node"></rect><text x="180" y="440" text-anchor="middle" dominant-baseline="middle" class="dg-text">Pipeline</text></g><g><rect x="580" y="410" width="240" height="50" rx="7" ry="7" class="dg-node"></rect><text x="700" y="440" text-anchor="middle" dominant-baseline="middle" class="dg-text">Orchestrator</text></g><g><path d="M 300 435 Q 440 435 580 435" class="dg-arrow dg-arrow--dashed" stroke="#2B4C6F" marker-end="url(#arrow)"></path></g></g><text x="20" y="508" text-anchor="start" font-family="'Source Sans 3', 'Inter', sans-serif" font-size="11" font-weight="400" fill="#8B7D6B">Every component you built maps to a production equivalent.</text></svg>