<svg xmlns="http://www.w3.org/2000/svg" viewBox="0 0 880 500" width="100%" style="max-width: 880px; display: block; background: transparent; font-family: 'Source Sans 3', 'Inter', sans-serif;"><defs><marker id="arrow" viewBox="0 0 8 8" refX="7" refY="4" markerWidth="6" markerHeight="6" orient="auto-start-reverse"><path d="M0,0 L8,4 L0,8 z" fill="#2B4C6F"></path></marker><marker id="arrow-amber" viewBox="0 0 8 8" refX="7" refY="4" markerWidth="6" markerHeight="6" orient="auto-start-reverse"><path d="M0,0 L8,4 L0,8 z" fill="#C8873D"></path></marker><marker id="arrow-red" viewBox="0 0 8 8" refX="7" refY="4" markerWidth="6" markerHeight="6" orient="auto-start-reverse"><path d="M0,0 L8,4 L0,8 z" fill="#C45B4A"></path></marker><marker id="arrow-green" viewBox="0 0 8 8" refX="7" refY="4" markerWidth="6" markerHeight="6" orient="auto-start-reverse"><path d="M0,0 L8,4 L0,8 z" fill="#5A8F6A"></path></marker><marker id="dot" viewBox="0 0 6 6" refX="3" refY="3" markerWidth="5" markerHeight="5"><circle cx="3" cy="3" r="2.5" fill="#2B4C6F"></circle></marker></defs><g><text x="20" y="14" font-family="'Source Sans 3', 'Inter', sans-serif" font-size="10" font-weight="600" letter-spacing="0.06em" fill="#8B7D6B">FIGURE 11.1</text><text x="20" y="28" font-family="'Source Sans 3', 'Inter', sans-serif" font-size="16" font-weight="600" fill="#2B4C6F">Token cost breakdown</text></g><g><rect x="80" y="320" width="720" height="100" rx="7" ry="7" class="dg-node dg-node--highlight"></rect><text x="440" y="368" text-anchor="middle" dominant-baseline="middle" class="dg-text">Startup cost</text><text x="440" y="384" text-anchor="middle" dominant-baseline="middle" class="dg-text--sub">CLAUDE.md (~2k) · state file (~1k) · skills (~3k)</text></g><g><rect x="120" y="244" width="180" height="56" rx="7" ry="7" class="dg-node"></rect><text x="210" y="270" text-anchor="middle" dominant-baseline="middle" class="dg-text">Quiz</text><text x="210" y="286" text-anchor="middle" dominant-baseline="middle" class="dg-text--sub">~600 tokens</text></g><g><rect x="330" y="220" width="220" height="80" rx="7" ry="7" class="dg-node"></rect><text x="440" y="258" text-anchor="middle" dominant-baseline="middle" class="dg-text">Cover letter</text><text x="440" y="274" text-anchor="middle" dominant-baseline="middle" class="dg-text--sub">~1.5k tokens</text></g><g><rect x="580" y="180" width="220" height="120" rx="7" ry="7" class="dg-node"></rect><text x="690" y="238" text-anchor="middle" dominant-baseline="middle" class="dg-text">Full pipeline</text><text x="690" y="254" text-anchor="middle" dominant-baseline="middle" class="dg-text--sub">~6k tokens</text></g><line x1="210" y1="300" x2="210" y2="320" stroke="#8B7D6B" stroke-width="0.75" stroke-dasharray="2 3"></line><line x1="440" y1="300" x2="440" y2="320" stroke="#8B7D6B" stroke-width="0.75" stroke-dasharray="2 3"></line><line x1="690" y1="300" x2="690" y2="320" stroke="#8B7D6B" stroke-width="0.75" stroke-dasharray="2 3"></line><text x="70" y="170" font-family="'Source Sans 3', 'Inter', sans-serif" font-size="11" font-weight="600" letter-spacing="0.06em" fill="#8B7D6B">PER-ACTION</text><text x="70" y="310" font-family="'Source Sans 3', 'Inter', sans-serif" font-size="11" font-weight="600" letter-spacing="0.06em" fill="#8B7D6B">STARTUP</text><text x="20" y="476" text-anchor="start" font-family="'Source Sans 3', 'Inter', sans-serif" font-size="11" font-weight="400" fill="#8B7D6B">Most of your token budget goes to loading context, not generating output.</text></svg>