<svg xmlns="http://www.w3.org/2000/svg" viewBox="0 0 1000 420" width="100%" style="max-width: 1000px; display: block; background: transparent; font-family: 'Source Sans 3', 'Inter', sans-serif;"><defs><marker id="arrow" viewBox="0 0 8 8" refX="7" refY="4" markerWidth="6" markerHeight="6" orient="auto-start-reverse"><path d="M0,0 L8,4 L0,8 z" fill="#2B4C6F"></path></marker><marker id="arrow-amber" viewBox="0 0 8 8" refX="7" refY="4" markerWidth="6" markerHeight="6" orient="auto-start-reverse"><path d="M0,0 L8,4 L0,8 z" fill="#C8873D"></path></marker><marker id="arrow-red" viewBox="0 0 8 8" refX="7" refY="4" markerWidth="6" markerHeight="6" orient="auto-start-reverse"><path d="M0,0 L8,4 L0,8 z" fill="#C45B4A"></path></marker><marker id="arrow-green" viewBox="0 0 8 8" refX="7" refY="4" markerWidth="6" markerHeight="6" orient="auto-start-reverse"><path d="M0,0 L8,4 L0,8 z" fill="#5A8F6A"></path></marker><marker id="dot" viewBox="0 0 6 6" refX="3" refY="3" markerWidth="5" markerHeight="5"><circle cx="3" cy="3" r="2.5" fill="#2B4C6F"></circle></marker></defs><g><text x="20" y="14" font-family="'Source Sans 3', 'Inter', sans-serif" font-size="10" font-weight="600" letter-spacing="0.06em" fill="#8B7D6B">FIGURE 12.1</text><text x="20" y="28" font-family="'Source Sans 3', 'Inter', sans-serif" font-size="16" font-weight="600" fill="#2B4C6F">Failure taxonomy</text></g><text x="60" y="82" font-family="'Source Sans 3', 'Inter', sans-serif" font-size="11" font-weight="600" letter-spacing="0.06em" fill="#8B7D6B">SYMPTOMS</text><text x="380" y="82" font-family="'Source Sans 3', 'Inter', sans-serif" font-size="11" font-weight="600" letter-spacing="0.06em" fill="#8B7D6B">COMPONENT</text><text x="720" y="82" font-family="'Source Sans 3', 'Inter', sans-serif" font-size="11" font-weight="600" letter-spacing="0.06em" fill="#8B7D6B">CHECK</text><g><g><rect x="60" y="100" width="240" height="64" rx="7" ry="7" class="dg-node dg-node--error"></rect><text x="180" y="137" text-anchor="middle" dominant-baseline="middle" class="dg-text">Wrong output</text></g><g><rect x="380" y="100" width="280" height="64" rx="7" ry="7" class="dg-node"></rect><text x="520" y="137" text-anchor="middle" dominant-baseline="middle" class="dg-text">Instruction (CLAUDE.md)</text></g><g><rect x="720" y="100" width="240" height="64" rx="7" ry="7" class="dg-node"></rect><text x="840" y="137" text-anchor="middle" dominant-baseline="middle" class="dg-text">Read the prompt</text></g><g><path d="M 300 132 Q 340 132 380 132" class="dg-arrow" stroke="#2B4C6F" marker-end="url(#arrow)"></path></g><g><path d="M 660 132 Q 690 132 720 132" class="dg-arrow" stroke="#2B4C6F" marker-end="url(#arrow)"></path></g></g><g><g><rect x="60" y="188" width="240" height="64" rx="7" ry="7" class="dg-node dg-node--error"></rect><text x="180" y="225" text-anchor="middle" dominant-baseline="middle" class="dg-text">Stale context</text></g><g><rect x="380" y="188" width="280" height="64" rx="7" ry="7" class="dg-node"></rect><text x="520" y="225" text-anchor="middle" dominant-baseline="middle" class="dg-text">Memory (state file)</text></g><g><rect x="720" y="188" width="240" height="64" rx="7" ry="7" class="dg-node"></rect><text x="840" y="225" text-anchor="middle" dominant-baseline="middle" class="dg-text">Inspect state file</text></g><g><path d="M 300 220 Q 340 220 380 220" class="dg-arrow" stroke="#2B4C6F" marker-end="url(#arrow)"></path></g><g><path d="M 660 220 Q 690 220 720 220" class="dg-arrow" stroke="#2B4C6F" marker-end="url(#arrow)"></path></g></g><g><g><rect x="60" y="276" width="240" height="64" rx="7" ry="7" class="dg-node dg-node--error"></rect><text x="180" y="313" text-anchor="middle" dominant-baseline="middle" class="dg-text">Ignored rules</text></g><g><rect x="380" y="276" width="280" height="64" rx="7" ry="7" class="dg-node"></rect><text x="520" y="313" text-anchor="middle" dominant-baseline="middle" class="dg-text">Control (hooks)</text></g><g><rect x="720" y="276" width="240" height="64" rx="7" ry="7" class="dg-node"></rect><text x="840" y="313" text-anchor="middle" dominant-baseline="middle" class="dg-text">Test the hook</text></g><g><path d="M 300 308 Q 340 308 380 308" class="dg-arrow" stroke="#2B4C6F" marker-end="url(#arrow)"></path></g><g><path d="M 660 308 Q 690 308 720 308" class="dg-arrow" stroke="#2B4C6F" marker-end="url(#arrow)"></path></g></g><text x="20" y="396" text-anchor="start" font-family="'Source Sans 3', 'Inter', sans-serif" font-size="11" font-weight="400" fill="#8B7D6B">Every symptom maps to a component. Every component has a specific check.</text></svg>