<svg xmlns="http://www.w3.org/2000/svg" viewBox="0 0 1080 620" width="100%" style="max-width: 1080px; display: block; background: transparent; font-family: 'Source Sans 3', 'Inter', sans-serif;"><defs><marker id="arrow" viewBox="0 0 8 8" refX="7" refY="4" markerWidth="6" markerHeight="6" orient="auto-start-reverse"><path d="M0,0 L8,4 L0,8 z" fill="#2B4C6F"></path></marker><marker id="arrow-amber" viewBox="0 0 8 8" refX="7" refY="4" markerWidth="6" markerHeight="6" orient="auto-start-reverse"><path d="M0,0 L8,4 L0,8 z" fill="#C8873D"></path></marker><marker id="arrow-red" viewBox="0 0 8 8" refX="7" refY="4" markerWidth="6" markerHeight="6" orient="auto-start-reverse"><path d="M0,0 L8,4 L0,8 z" fill="#C45B4A"></path></marker><marker id="arrow-green" viewBox="0 0 8 8" refX="7" refY="4" markerWidth="6" markerHeight="6" orient="auto-start-reverse"><path d="M0,0 L8,4 L0,8 z" fill="#5A8F6A"></path></marker><marker id="dot" viewBox="0 0 6 6" refX="3" refY="3" markerWidth="5" markerHeight="5"><circle cx="3" cy="3" r="2.5" fill="#2B4C6F"></circle></marker></defs><g><text x="20" y="14" font-family="'Source Sans 3', 'Inter', sans-serif" font-size="10" font-weight="600" letter-spacing="0.06em" fill="#8B7D6B">FIGURE 13.2</text><text x="20" y="28" font-family="'Source Sans 3', 'Inter', sans-serif" font-size="16" font-weight="600" fill="#2B4C6F">Full architecture — four systems connected</text></g><g><rect x="430" y="70" width="220" height="64" rx="7" ry="7" class="dg-node dg-node--highlight"></rect><text x="540" y="100" text-anchor="middle" dominant-baseline="middle" class="dg-text">Master index</text><text x="540" y="116" text-anchor="middle" dominant-baseline="middle" class="dg-text--sub">claude.md</text></g><g><g><rect x="60" y="200" width="200" height="48" rx="7" ry="7" class="dg-node dg-node--active"></rect><text x="160" y="222" text-anchor="middle" dominant-baseline="middle" class="dg-text dg-text--inverse">Study</text><text x="160" y="238" text-anchor="middle" dominant-baseline="middle" class="dg-text--sub dg-text--inverse">study/</text></g><g><rect x="60" y="262" width="200" height="42" rx="7" ry="7" class="dg-node"></rect><text x="160" y="288" text-anchor="middle" dominant-baseline="middle" class="dg-text">CLAUDE.md</text></g><g><rect x="60" y="316" width="200" height="42" rx="7" ry="7" class="dg-node"></rect><text x="160" y="342" text-anchor="middle" dominant-baseline="middle" class="dg-text">State</text></g><g><rect x="60" y="370" width="200" height="42" rx="7" ry="7" class="dg-node"></rect><text x="160" y="396" text-anchor="middle" dominant-baseline="middle" class="dg-text">Skills</text></g><g><path d="M 540 134 Q 350 167 160 200" class="dg-arrow dg-arrow--dashed" stroke="#2B4C6F" marker-end="url(#arrow)"></path></g></g><g><g><rect x="284" y="200" width="200" height="48" rx="7" ry="7" class="dg-node dg-node--active"></rect><text x="384" y="222" text-anchor="middle" dominant-baseline="middle" class="dg-text dg-text--inverse">Job hunting</text><text x="384" y="238" text-anchor="middle" dominant-baseline="middle" class="dg-text--sub dg-text--inverse">jobs/</text></g><g><rect x="284" y="262" width="200" height="42" rx="7" ry="7" class="dg-node"></rect><text x="384" y="288" text-anchor="middle" dominant-baseline="middle" class="dg-text">CLAUDE.md</text></g><g><rect x="284" y="316" width="200" height="42" rx="7" ry="7" class="dg-node"></rect><text x="384" y="342" text-anchor="middle" dominant-baseline="middle" class="dg-text">State</text></g><g><rect x="284" y="370" width="200" height="42" rx="7" ry="7" class="dg-node"></rect><text x="384" y="396" text-anchor="middle" dominant-baseline="middle" class="dg-text">Skills</text></g><g><path d="M 540 134 Q 462 167 384 200" class="dg-arrow dg-arrow--dashed" stroke="#2B4C6F" marker-end="url(#arrow)"></path></g></g><g><g><rect x="508" y="200" width="200" height="48" rx="7" ry="7" class="dg-node dg-node--active"></rect><text x="608" y="222" text-anchor="middle" dominant-baseline="middle" class="dg-text dg-text--inverse">Project mgmt</text><text x="608" y="238" text-anchor="middle" dominant-baseline="middle" class="dg-text--sub dg-text--inverse">projects/</text></g><g><rect x="508" y="262" width="200" height="42" rx="7" ry="7" class="dg-node"></rect><text x="608" y="288" text-anchor="middle" dominant-baseline="middle" class="dg-text">CLAUDE.md</text></g><g><rect x="508" y="316" width="200" height="42" rx="7" ry="7" class="dg-node"></rect><text x="608" y="342" text-anchor="middle" dominant-baseline="middle" class="dg-text">State</text></g><g><rect x="508" y="370" width="200" height="42" rx="7" ry="7" class="dg-node"></rect><text x="608" y="396" text-anchor="middle" dominant-baseline="middle" class="dg-text">Skills</text></g><g><path d="M 540 134 Q 574 167 608 200" class="dg-arrow dg-arrow--dashed" stroke="#2B4C6F" marker-end="url(#arrow)"></path></g></g><g><g><rect x="732" y="200" width="200" height="48" rx="7" ry="7" class="dg-node dg-node--active"></rect><text x="832" y="222" text-anchor="middle" dominant-baseline="middle" class="dg-text dg-text--inverse">Content</text><text x="832" y="238" text-anchor="middle" dominant-baseline="middle" class="dg-text--sub dg-text--inverse">content/</text></g><g><rect x="732" y="262" width="200" height="42" rx="7" ry="7" class="dg-node"></rect><text x="832" y="288" text-anchor="middle" dominant-baseline="middle" class="dg-text">CLAUDE.md</text></g><g><rect x="732" y="316" width="200" height="42" rx="7" ry="7" class="dg-node"></rect><text x="832" y="342" text-anchor="middle" dominant-baseline="middle" class="dg-text">State</text></g><g><rect x="732" y="370" width="200" height="42" rx="7" ry="7" class="dg-node"></rect><text x="832" y="396" text-anchor="middle" dominant-baseline="middle" class="dg-text">Skills</text></g><g><path d="M 540 134 Q 686 167 832 200" class="dg-arrow dg-arrow--dashed" stroke="#2B4C6F" marker-end="url(#arrow)"></path></g></g><g><path d="M 608 246 Q 720 216 832 246" class="dg-arrow dg-arrow--accent dg-arrow--dashed" stroke="#C8873D" marker-end="url(#arrow-amber)"></path><text x="720" y="219" text-anchor="middle" dominant-baseline="middle" class="dg-text--edge">reads</text></g><g><path d="M 160 246 Q 272 216 384 246" class="dg-arrow dg-arrow--accent dg-arrow--dashed" stroke="#C8873D" marker-end="url(#arrow-amber)"></path><text x="272" y="219" text-anchor="middle" dominant-baseline="middle" class="dg-text--edge">reads</text></g><g><rect x="40" y="460" width="1000" height="110" rx="8" ry="8" fill="none" stroke="#2B4C6F" stroke-width="0.75" stroke-dasharray="3 3"></rect><text x="50" y="454" font-family="'Source Sans 3', 'Inter', sans-serif" font-size="10" font-weight="600" letter-spacing="0.06em" fill="#8B7D6B">SHARED · .CLAUDE/</text></g><g><rect x="80" y="488" width="300" height="64" rx="7" ry="7" class="dg-node"></rect><text x="230" y="518" text-anchor="middle" dominant-baseline="middle" class="dg-text">Hooks</text><text x="230" y="534" text-anchor="middle" dominant-baseline="middle" class="dg-text--sub">quality + safety</text></g><g><rect x="400" y="488" width="300" height="64" rx="7" ry="7" class="dg-node"></rect><text x="550" y="518" text-anchor="middle" dominant-baseline="middle" class="dg-text">Commands</text><text x="550" y="534" text-anchor="middle" dominant-baseline="middle" class="dg-text--sub">reusable actions</text></g><g><rect x="720" y="488" width="300" height="64" rx="7" ry="7" class="dg-node"></rect><text x="870" y="518" text-anchor="middle" dominant-baseline="middle" class="dg-text">Connections</text><text x="870" y="534" text-anchor="middle" dominant-baseline="middle" class="dg-text--sub">APIs, web, data</text></g><text x="20" y="596" text-anchor="start" font-family="'Source Sans 3', 'Inter', sans-serif" font-size="11" font-weight="400" fill="#8B7D6B">The personal AI operating system. Four systems, one architecture.</text></svg>