<svg xmlns="http://www.w3.org/2000/svg" viewBox="0 0 1000 520" width="100%" style="max-width: 1000px; display: block; background: transparent; font-family: 'Source Sans 3', 'Inter', sans-serif;"><defs><marker id="arrow" viewBox="0 0 8 8" refX="7" refY="4" markerWidth="6" markerHeight="6" orient="auto-start-reverse"><path d="M0,0 L8,4 L0,8 z" fill="#2B4C6F"></path></marker><marker id="arrow-amber" viewBox="0 0 8 8" refX="7" refY="4" markerWidth="6" markerHeight="6" orient="auto-start-reverse"><path d="M0,0 L8,4 L0,8 z" fill="#C8873D"></path></marker><marker id="arrow-red" viewBox="0 0 8 8" refX="7" refY="4" markerWidth="6" markerHeight="6" orient="auto-start-reverse"><path d="M0,0 L8,4 L0,8 z" fill="#C45B4A"></path></marker><marker id="arrow-green" viewBox="0 0 8 8" refX="7" refY="4" markerWidth="6" markerHeight="6" orient="auto-start-reverse"><path d="M0,0 L8,4 L0,8 z" fill="#5A8F6A"></path></marker><marker id="dot" viewBox="0 0 6 6" refX="3" refY="3" markerWidth="5" markerHeight="5"><circle cx="3" cy="3" r="2.5" fill="#2B4C6F"></circle></marker></defs><g><text x="20" y="14" font-family="'Source Sans 3', 'Inter', sans-serif" font-size="10" font-weight="600" letter-spacing="0.06em" fill="#8B7D6B">FIGURE 13.1</text><text x="20" y="28" font-family="'Source Sans 3', 'Inter', sans-serif" font-size="16" font-weight="600" fill="#2B4C6F">Four composition patterns</text></g><g><rect x="30" y="70" width="460" height="200" rx="8" ry="8" fill="none" stroke="#2B4C6F" stroke-width="0.75" stroke-dasharray="3 3"></rect><text x="40" y="64" font-family="'Source Sans 3', 'Inter', sans-serif" font-size="10" font-weight="600" letter-spacing="0.06em" fill="#8B7D6B">CHAIN</text></g><g><rect x="70" y="140" width="130" height="50" rx="7" ry="7" class="dg-node"></rect><text x="135" y="170" text-anchor="middle" dominant-baseline="middle" class="dg-text">System A</text></g><g><rect x="310" y="140" width="130" height="50" rx="7" ry="7" class="dg-node"></rect><text x="375" y="170" text-anchor="middle" dominant-baseline="middle" class="dg-text">System B</text></g><g><path d="M 200 165 Q 255 165 310 165" class="dg-arrow" stroke="#2B4C6F" marker-end="url(#arrow)"></path></g><g><rect x="510" y="70" width="460" height="200" rx="8" ry="8" fill="none" stroke="#2B4C6F" stroke-width="0.75" stroke-dasharray="3 3"></rect><text x="520" y="64" font-family="'Source Sans 3', 'Inter', sans-serif" font-size="10" font-weight="600" letter-spacing="0.06em" fill="#8B7D6B">SHARED STATE</text></g><g><rect x="550" y="100" width="130" height="50" rx="7" ry="7" class="dg-node"></rect><text x="615" y="130" text-anchor="middle" dominant-baseline="middle" class="dg-text">System A</text></g><g><rect x="830" y="100" width="130" height="50" rx="7" ry="7" class="dg-node"></rect><text x="895" y="130" text-anchor="middle" dominant-baseline="middle" class="dg-text">System B</text></g><g><rect x="680" y="210" width="150" height="50" rx="7" ry="7" class="dg-node dg-node--highlight"></rect><text x="755" y="240" text-anchor="middle" dominant-baseline="middle" class="dg-text">State file</text></g><g><path d="M 615 150 Q 670.5098948708197 167.31766645453544 710 210" class="dg-arrow" stroke="#2B4C6F" marker-end="url(#arrow)"></path></g><g><path d="M 895 150 Q 839.4901051291803 167.31766645453544 800 210" class="dg-arrow" stroke="#2B4C6F" marker-end="url(#arrow)"></path></g><g><path d="M 710 210 Q 655.5138035075107 198.27377333572974 615 160" class="dg-arrow dg-arrow--dashed" stroke="#2B4C6F" marker-end="url(#arrow)"></path></g><g><path d="M 800 210 Q 854.4861964924893 198.27377333572974 895 160" class="dg-arrow dg-arrow--dashed" stroke="#2B4C6F" marker-end="url(#arrow)"></path></g><g><rect x="30" y="300" width="460" height="200" rx="8" ry="8" fill="none" stroke="#2B4C6F" stroke-width="0.75" stroke-dasharray="3 3"></rect><text x="40" y="294" font-family="'Source Sans 3', 'Inter', sans-serif" font-size="10" font-weight="600" letter-spacing="0.06em" fill="#8B7D6B">SHARED SKILLS</text></g><g><rect x="70" y="330" width="130" height="50" rx="7" ry="7" class="dg-node"></rect><text x="135" y="360" text-anchor="middle" dominant-baseline="middle" class="dg-text">System A</text></g><g><rect x="310" y="330" width="130" height="50" rx="7" ry="7" class="dg-node"></rect><text x="375" y="360" text-anchor="middle" dominant-baseline="middle" class="dg-text">System B</text></g><g><rect x="190" y="430" width="150" height="50" rx="7" ry="7" class="dg-node dg-node--highlight"></rect><text x="265" y="460" text-anchor="middle" dominant-baseline="middle" class="dg-text">Skills/</text></g><g><path d="M 135 380 Q 185.1053018984509 392.07098677263343 220 430" class="dg-arrow dg-arrow--dashed" stroke="#2B4C6F" marker-end="url(#arrow)"></path></g><g><path d="M 375 380 Q 333.35433858725463 393.110640163431 310 430" class="dg-arrow dg-arrow--dashed" stroke="#2B4C6F" marker-end="url(#arrow)"></path></g><g><rect x="510" y="300" width="460" height="200" rx="8" ry="8" fill="none" stroke="#2B4C6F" stroke-width="0.75" stroke-dasharray="3 3"></rect><text x="520" y="294" font-family="'Source Sans 3', 'Inter', sans-serif" font-size="10" font-weight="600" letter-spacing="0.06em" fill="#8B7D6B">CROSS-SYSTEM HOOKS</text></g><g><rect x="540" y="375" width="140" height="50" rx="7" ry="7" class="dg-node"></rect><text x="610" y="405" text-anchor="middle" dominant-baseline="middle" class="dg-text">System A</text></g><g><polygon points="740,365 795,400 740,435 685,400" class="dg-decision"></polygon><text x="740" y="405" text-anchor="middle" dominant-baseline="middle" class="dg-text">Hook</text></g><g><rect x="810" y="375" width="140" height="50" rx="7" ry="7" class="dg-node"></rect><text x="880" y="405" text-anchor="middle" dominant-baseline="middle" class="dg-text">System B</text></g><g><path d="M 680 400 Q 682.5 400 685 400" class="dg-arrow" stroke="#2B4C6F" marker-end="url(#arrow)"></path></g><g><path d="M 795 400 Q 802.5 400 810 400" class="dg-arrow dg-arrow--accent" stroke="#C8873D" marker-end="url(#arrow-amber)"></path></g><text x="20" y="496" text-anchor="start" font-family="'Source Sans 3', 'Inter', sans-serif" font-size="11" font-weight="400" fill="#8B7D6B">Four ways systems connect. Start with Chain, add others as complexity demands.</text></svg>