<svg xmlns="http://www.w3.org/2000/svg" viewBox="0 0 1020 300" width="100%" style="max-width: 1020px; display: block; background: transparent; font-family: 'Source Sans 3', 'Inter', sans-serif;"><defs><marker id="arrow" viewBox="0 0 8 8" refX="7" refY="4" markerWidth="6" markerHeight="6" orient="auto-start-reverse"><path d="M0,0 L8,4 L0,8 z" fill="#2B4C6F"></path></marker><marker id="arrow-amber" viewBox="0 0 8 8" refX="7" refY="4" markerWidth="6" markerHeight="6" orient="auto-start-reverse"><path d="M0,0 L8,4 L0,8 z" fill="#C8873D"></path></marker><marker id="arrow-red" viewBox="0 0 8 8" refX="7" refY="4" markerWidth="6" markerHeight="6" orient="auto-start-reverse"><path d="M0,0 L8,4 L0,8 z" fill="#C45B4A"></path></marker><marker id="arrow-green" viewBox="0 0 8 8" refX="7" refY="4" markerWidth="6" markerHeight="6" orient="auto-start-reverse"><path d="M0,0 L8,4 L0,8 z" fill="#5A8F6A"></path></marker><marker id="dot" viewBox="0 0 6 6" refX="3" refY="3" markerWidth="5" markerHeight="5"><circle cx="3" cy="3" r="2.5" fill="#2B4C6F"></circle></marker></defs><g><text x="20" y="14" font-family="'Source Sans 3', 'Inter', sans-serif" font-size="10" font-weight="600" letter-spacing="0.06em" fill="#8B7D6B">FIGURE 14.1</text><text x="20" y="28" font-family="'Source Sans 3', 'Inter', sans-serif" font-size="16" font-weight="600" fill="#2B4C6F">Before workflow</text></g><g><rect x="40" y="150" width="170" height="60" rx="7" ry="7" class="dg-node"></rect><text x="125" y="185" text-anchor="middle" dominant-baseline="middle" class="dg-text">What you type</text></g><g><rect x="250" y="150" width="130" height="60" rx="7" ry="7" class="dg-node dg-node--active"></rect><text x="315" y="185" text-anchor="middle" dominant-baseline="middle" class="dg-text dg-text--inverse">AI</text></g><g><rect x="420" y="150" width="170" height="60" rx="7" ry="7" class="dg-node"></rect><text x="505" y="185" text-anchor="middle" dominant-baseline="middle" class="dg-text">What you get</text></g><g><rect x="630" y="130" width="350" height="100" rx="7" ry="7" class="dg-node dg-node--error"></rect><text x="805" y="178" text-anchor="middle" dominant-baseline="middle" class="dg-text">What you check and fix by hand</text><text x="805" y="194" text-anchor="middle" dominant-baseline="middle" class="dg-text--sub">reformat, fact-check, rewrite, retry</text></g><g><path d="M 210 180 Q 230 180 250 180" class="dg-arrow" stroke="#2B4C6F" marker-end="url(#arrow)"></path></g><g><path d="M 380 180 Q 400 180 420 180" class="dg-arrow" stroke="#2B4C6F" marker-end="url(#arrow)"></path></g><g><path d="M 590 180 Q 610 180 630 180" class="dg-arrow" stroke="#2B4C6F" marker-end="url(#arrow)"></path></g><g><path d="M 805 80 Q 805 105 805 130" class="dg-arrow dg-arrow--accent" stroke="#C8873D" marker-end="url(#arrow-amber)"></path><text x="835" y="105" text-anchor="middle" dominant-baseline="middle" class="dg-text--edge">The problem area</text></g><text x="20" y="276" text-anchor="start" font-family="'Source Sans 3', 'Inter', sans-serif" font-size="11" font-weight="400" fill="#8B7D6B">Before systems: you do most of the work after AI generates output.</text></svg>