<svg xmlns="http://www.w3.org/2000/svg" viewBox="0 0 1000 760" width="100%" style="max-width: 1000px; display: block; background: transparent; font-family: 'Source Sans 3', 'Inter', sans-serif;"><defs><marker id="arrow" viewBox="0 0 8 8" refX="7" refY="4" markerWidth="6" markerHeight="6" orient="auto-start-reverse"><path d="M0,0 L8,4 L0,8 z" fill="#2B4C6F"></path></marker><marker id="arrow-amber" viewBox="0 0 8 8" refX="7" refY="4" markerWidth="6" markerHeight="6" orient="auto-start-reverse"><path d="M0,0 L8,4 L0,8 z" fill="#C8873D"></path></marker><marker id="arrow-red" viewBox="0 0 8 8" refX="7" refY="4" markerWidth="6" markerHeight="6" orient="auto-start-reverse"><path d="M0,0 L8,4 L0,8 z" fill="#C45B4A"></path></marker><marker id="arrow-green" viewBox="0 0 8 8" refX="7" refY="4" markerWidth="6" markerHeight="6" orient="auto-start-reverse"><path d="M0,0 L8,4 L0,8 z" fill="#5A8F6A"></path></marker><marker id="dot" viewBox="0 0 6 6" refX="3" refY="3" markerWidth="5" markerHeight="5"><circle cx="3" cy="3" r="2.5" fill="#2B4C6F"></circle></marker></defs><g><text x="20" y="14" font-family="'Source Sans 3', 'Inter', sans-serif" font-size="10" font-weight="600" letter-spacing="0.06em" fill="#8B7D6B">FIGURE 15.2</text><text x="20" y="28" font-family="'Source Sans 3', 'Inter', sans-serif" font-size="16" font-weight="600" fill="#2B4C6F">Complete toolkit summary</text></g><text x="60" y="68" font-family="'Source Sans 3', 'Inter', sans-serif" font-size="11" font-weight="600" letter-spacing="0.06em" fill="#8B7D6B">4 UNIVERSAL CONCEPTS</text><g><g><rect x="60" y="80" width="220" height="48" rx="7" ry="7" class="dg-node dg-node--active"></rect><text x="170" y="109" text-anchor="middle" dominant-baseline="middle" class="dg-text dg-text--inverse">Instruction</text></g><g><rect x="60" y="146" width="220" height="44" rx="7" ry="7" class="dg-node"></rect><text x="170" y="173" text-anchor="middle" dominant-baseline="middle" class="dg-text">Prompt</text></g><g><rect x="60" y="200" width="220" height="44" rx="7" ry="7" class="dg-node"></rect><text x="170" y="227" text-anchor="middle" dominant-baseline="middle" class="dg-text">Skills</text></g></g><g><g><rect x="294" y="80" width="220" height="48" rx="7" ry="7" class="dg-node dg-node--active"></rect><text x="404" y="109" text-anchor="middle" dominant-baseline="middle" class="dg-text dg-text--inverse">Memory</text></g><g><rect x="294" y="146" width="220" height="44" rx="7" ry="7" class="dg-node"></rect><text x="404" y="173" text-anchor="middle" dominant-baseline="middle" class="dg-text">State</text></g></g><g><g><rect x="528" y="80" width="220" height="48" rx="7" ry="7" class="dg-node dg-node--active"></rect><text x="638" y="109" text-anchor="middle" dominant-baseline="middle" class="dg-text dg-text--inverse">Control</text></g><g><rect x="528" y="146" width="220" height="44" rx="7" ry="7" class="dg-node"></rect><text x="638" y="173" text-anchor="middle" dominant-baseline="middle" class="dg-text">Hooks</text></g></g><g><g><rect x="762" y="80" width="220" height="48" rx="7" ry="7" class="dg-node dg-node--active"></rect><text x="872" y="109" text-anchor="middle" dominant-baseline="middle" class="dg-text dg-text--inverse">Flow</text></g><g><rect x="762" y="146" width="220" height="44" rx="7" ry="7" class="dg-node"></rect><text x="872" y="173" text-anchor="middle" dominant-baseline="middle" class="dg-text">Connections</text></g><g><rect x="762" y="200" width="220" height="44" rx="7" ry="7" class="dg-node"></rect><text x="872" y="227" text-anchor="middle" dominant-baseline="middle" class="dg-text">Pipeline</text></g></g><text x="60" y="138" font-family="'Source Sans 3', 'Inter', sans-serif" font-size="11" font-weight="600" letter-spacing="0.06em" fill="#8B7D6B">6 COMPONENTS</text><text x="60" y="300" font-family="'Source Sans 3', 'Inter', sans-serif" font-size="11" font-weight="600" letter-spacing="0.06em" fill="#8B7D6B">3 PATTERNS</text><g><rect x="60" y="314" width="279.3333333333333" height="48" rx="7" ry="7" class="dg-node dg-node--highlight"></rect><text x="199.66666666666666" y="343" text-anchor="middle" dominant-baseline="middle" class="dg-text">Loop</text></g><g><rect x="353.3333333333333" y="314" width="279.3333333333333" height="48" rx="7" ry="7" class="dg-node dg-node--highlight"></rect><text x="493" y="343" text-anchor="middle" dominant-baseline="middle" class="dg-text">Gate</text></g><g><rect x="646.6666666666666" y="314" width="279.3333333333333" height="48" rx="7" ry="7" class="dg-node dg-node--highlight"></rect><text x="786.3333333333333" y="343" text-anchor="middle" dominant-baseline="middle" class="dg-text">Router</text></g><text x="60" y="400" font-family="'Source Sans 3', 'Inter', sans-serif" font-size="11" font-weight="600" letter-spacing="0.06em" fill="#8B7D6B">DEBUGGING PROTOCOL · 5 STEPS</text><g><rect x="60" y="414" width="168" height="44" rx="7" ry="7" class="dg-node"></rect><text x="144" y="441" text-anchor="middle" dominant-baseline="middle" class="dg-text">1. Symptom</text></g><g><rect x="236" y="414" width="168" height="44" rx="7" ry="7" class="dg-node"></rect><text x="320" y="441" text-anchor="middle" dominant-baseline="middle" class="dg-text">2. Map</text></g><g><rect x="412" y="414" width="168" height="44" rx="7" ry="7" class="dg-node"></rect><text x="496" y="441" text-anchor="middle" dominant-baseline="middle" class="dg-text">3. Isolate</text></g><g><rect x="588" y="414" width="168" height="44" rx="7" ry="7" class="dg-node"></rect><text x="672" y="441" text-anchor="middle" dominant-baseline="middle" class="dg-text">4. Fix</text></g><g><rect x="764" y="414" width="168" height="44" rx="7" ry="7" class="dg-node"></rect><text x="848" y="441" text-anchor="middle" dominant-baseline="middle" class="dg-text">5. Add check</text></g><text x="60" y="490" font-family="'Source Sans 3', 'Inter', sans-serif" font-size="11" font-weight="600" letter-spacing="0.06em" fill="#8B7D6B">DESIGN PROCESS · 8 STEPS</text><g><rect x="60" y="504" width="104" height="44" rx="7" ry="7" class="dg-node"></rect><text x="112" y="531" text-anchor="middle" dominant-baseline="middle" class="dg-text">1. Frustration</text></g><g><rect x="170" y="504" width="104" height="44" rx="7" ry="7" class="dg-node"></rect><text x="222" y="531" text-anchor="middle" dominant-baseline="middle" class="dg-text">2. Concept</text></g><g><rect x="280" y="504" width="104" height="44" rx="7" ry="7" class="dg-node"></rect><text x="332" y="531" text-anchor="middle" dominant-baseline="middle" class="dg-text">3. Component</text></g><g><rect x="390" y="504" width="104" height="44" rx="7" ry="7" class="dg-node"></rect><text x="442" y="531" text-anchor="middle" dominant-baseline="middle" class="dg-text">4. Write</text></g><g><rect x="500" y="504" width="104" height="44" rx="7" ry="7" class="dg-node"></rect><text x="552" y="531" text-anchor="middle" dominant-baseline="middle" class="dg-text">5. Test</text></g><g><rect x="610" y="504" width="104" height="44" rx="7" ry="7" class="dg-node"></rect><text x="662" y="531" text-anchor="middle" dominant-baseline="middle" class="dg-text">6. Expand</text></g><g><rect x="720" y="504" width="104" height="44" rx="7" ry="7" class="dg-node"></rect><text x="772" y="531" text-anchor="middle" dominant-baseline="middle" class="dg-text">7. Break</text></g><g><rect x="830" y="504" width="104" height="44" rx="7" ry="7" class="dg-node"></rect><text x="882" y="531" text-anchor="middle" dominant-baseline="middle" class="dg-text">8. Document</text></g><text x="20" y="620" text-anchor="start" font-family="'Source Sans 3', 'Inter', sans-serif" font-size="11" font-weight="400" fill="#8B7D6B">Everything in this book, on one page.</text></svg>