<svg xmlns="http://www.w3.org/2000/svg" viewBox="0 0 1000 520" width="100%" style="max-width: 1000px; display: block; background: transparent; font-family: 'Source Sans 3', 'Inter', sans-serif;"><defs><marker id="arrow" viewBox="0 0 8 8" refX="7" refY="4" markerWidth="6" markerHeight="6" orient="auto-start-reverse"><path d="M0,0 L8,4 L0,8 z" fill="#2B4C6F"></path></marker><marker id="arrow-amber" viewBox="0 0 8 8" refX="7" refY="4" markerWidth="6" markerHeight="6" orient="auto-start-reverse"><path d="M0,0 L8,4 L0,8 z" fill="#C8873D"></path></marker><marker id="arrow-red" viewBox="0 0 8 8" refX="7" refY="4" markerWidth="6" markerHeight="6" orient="auto-start-reverse"><path d="M0,0 L8,4 L0,8 z" fill="#C45B4A"></path></marker><marker id="arrow-green" viewBox="0 0 8 8" refX="7" refY="4" markerWidth="6" markerHeight="6" orient="auto-start-reverse"><path d="M0,0 L8,4 L0,8 z" fill="#5A8F6A"></path></marker><marker id="dot" viewBox="0 0 6 6" refX="3" refY="3" markerWidth="5" markerHeight="5"><circle cx="3" cy="3" r="2.5" fill="#2B4C6F"></circle></marker></defs><g><text x="20" y="14" font-family="'Source Sans 3', 'Inter', sans-serif" font-size="10" font-weight="600" letter-spacing="0.06em" fill="#8B7D6B">FIGURE A.3</text><text x="20" y="28" font-family="'Source Sans 3', 'Inter', sans-serif" font-size="16" font-weight="600" fill="#2B4C6F">Context injection — regex vs systems thinking</text></g><g><rect x="30" y="80" width="420" height="400" rx="8" ry="8" fill="none" stroke="#2B4C6F" stroke-width="0.75" stroke-dasharray="3 3"></rect><text x="40" y="74" font-family="'Source Sans 3', 'Inter', sans-serif" font-size="10" font-weight="600" letter-spacing="0.06em" fill="#8B7D6B">REGEX APPROACH</text></g><g><g><rect x="120" y="120" width="240" height="56" rx="7" ry="7" class="dg-node"></rect><text x="240" y="153" text-anchor="middle" dominant-baseline="middle" class="dg-text">Input</text></g><g><path d="M 240 176 Q 240 188 240 200" class="dg-arrow" stroke="#2B4C6F" marker-end="url(#arrow)"></path></g></g><g><g><rect x="120" y="200" width="240" height="56" rx="7" ry="7" class="dg-node"></rect><text x="240" y="233" text-anchor="middle" dominant-baseline="middle" class="dg-text">Pattern match</text></g><g><path d="M 240 256 Q 240 268 240 280" class="dg-arrow" stroke="#2B4C6F" marker-end="url(#arrow)"></path></g></g><g><g><rect x="120" y="280" width="240" height="56" rx="7" ry="7" class="dg-node"></rect><text x="240" y="313" text-anchor="middle" dominant-baseline="middle" class="dg-text">Replace</text></g><g><path d="M 240 336 Q 240 348 240 360" class="dg-arrow" stroke="#2B4C6F" marker-end="url(#arrow)"></path></g></g><g><g><rect x="120" y="360" width="240" height="56" rx="7" ry="7" class="dg-node dg-node--error"></rect><text x="240" y="393" text-anchor="middle" dominant-baseline="middle" class="dg-text">Output</text></g></g><g><rect x="510" y="80" width="460" height="400" rx="8" ry="8" fill="none" stroke="#2B4C6F" stroke-width="0.75" stroke-dasharray="3 3"></rect><text x="520" y="74" font-family="'Source Sans 3', 'Inter', sans-serif" font-size="10" font-weight="600" letter-spacing="0.06em" fill="#8B7D6B">SYSTEMS APPROACH</text></g><g><rect x="620" y="100" width="240" height="48" rx="7" ry="7" class="dg-node"></rect><text x="740" y="129" text-anchor="middle" dominant-baseline="middle" class="dg-text">Input</text></g><g><path d="M 740 148 Q 740 162 740 176" class="dg-arrow" stroke="#2B4C6F" marker-end="url(#arrow)"></path></g><g><rect x="620" y="176" width="240" height="48" rx="7" ry="7" class="dg-node"></rect><text x="740" y="205" text-anchor="middle" dominant-baseline="middle" class="dg-text">Detect</text></g><g><path d="M 740 224 Q 740 237 740 250" class="dg-arrow" stroke="#2B4C6F" marker-end="url(#arrow)"></path></g><g><polygon points="740,250 840,282 740,314 640,282" class="dg-decision"></polygon><text x="740" y="287" text-anchor="middle" dominant-baseline="middle" class="dg-text">Classify</text></g><g><rect x="530" y="350" width="120" height="44" rx="7" ry="7" class="dg-node dg-node--success"></rect><text x="590" y="377" text-anchor="middle" dominant-baseline="middle" class="dg-text">Redact</text></g><g><rect x="680" y="350" width="120" height="44" rx="7" ry="7" class="dg-node dg-node--highlight"></rect><text x="740" y="377" text-anchor="middle" dominant-baseline="middle" class="dg-text">Flag</text></g><g><rect x="830" y="350" width="120" height="44" rx="7" ry="7" class="dg-node"></rect><text x="890" y="377" text-anchor="middle" dominant-baseline="middle" class="dg-text">Pass</text></g><g><path d="M 680 310 Q 646.7082039324994 343.41640786499875 600 350" class="dg-arrow" stroke="#2B4C6F" marker-end="url(#arrow)"></path></g><g><path d="M 740 314 Q 740 332 740 350" class="dg-arrow" stroke="#2B4C6F" marker-end="url(#arrow)"></path></g><g><path d="M 800 310 Q 833.2917960675006 343.41640786499875 880 350" class="dg-arrow" stroke="#2B4C6F" marker-end="url(#arrow)"></path></g><g><rect x="620" y="420" width="240" height="48" rx="7" ry="7" class="dg-node dg-node--success"></rect><text x="740" y="449" text-anchor="middle" dominant-baseline="middle" class="dg-text">Output</text></g><g><path d="M 590 394 Q 628.4818652960363 397.6257472799023 660 420" class="dg-arrow" stroke="#2B4C6F" marker-end="url(#arrow)"></path></g><g><path d="M 740 394 Q 740 407 740 420" class="dg-arrow" stroke="#2B4C6F" marker-end="url(#arrow)"></path></g><g><path d="M 890 394 Q 851.5181347039637 397.6257472799023 820 420" class="dg-arrow" stroke="#2B4C6F" marker-end="url(#arrow)"></path></g><g><rect x="780" y="480" width="170" height="36" rx="7" ry="7" class="dg-node"></rect><text x="865" y="503" text-anchor="middle" dominant-baseline="middle" class="dg-text">Audit log</text></g><g><path d="M 590 394 Q 680.6759523345457 499.8483427750439 820 496" class="dg-arrow dg-arrow--dashed" stroke="#2B4C6F" marker-end="url(#arrow)"></path></g><g><path d="M 740 394 Q 749.271148816105 467.6073759865792 820 490" class="dg-arrow dg-arrow--dashed" stroke="#2B4C6F" marker-end="url(#arrow)"></path></g><g><path d="M 890 394 Q 856.0263340389897 432.67544467966326 860 484" class="dg-arrow dg-arrow--dashed" stroke="#2B4C6F" marker-end="url(#arrow)"></path></g><text x="20" y="506" text-anchor="start" font-family="'Source Sans 3', 'Inter', sans-serif" font-size="11" font-weight="400" fill="#8B7D6B">Regex finds patterns. Systems thinking understands context.</text></svg>